G75*
%MOIN*%
%OFA0B0*%
%FSLAX25Y25*%
%IPPOS*%
%LPD*%
%AMOC8*
5,1,8,0,0,1.08239X$1,22.5*
%
%ADD10C,0.00000*%
D10*
X0233283Y0008874D02*
X0008874Y0008874D01*
X0008874Y0166354D01*
X0233283Y0166354D01*
X0233283Y0008874D01*
X0016158Y0152575D02*
X0016160Y0152736D01*
X0016166Y0152896D01*
X0016176Y0153057D01*
X0016190Y0153217D01*
X0016208Y0153376D01*
X0016229Y0153536D01*
X0016255Y0153694D01*
X0016285Y0153852D01*
X0016318Y0154009D01*
X0016356Y0154166D01*
X0016397Y0154321D01*
X0016442Y0154475D01*
X0016491Y0154628D01*
X0016544Y0154780D01*
X0016600Y0154930D01*
X0016660Y0155079D01*
X0016724Y0155227D01*
X0016791Y0155373D01*
X0016862Y0155517D01*
X0016937Y0155659D01*
X0017015Y0155800D01*
X0017096Y0155938D01*
X0017181Y0156075D01*
X0017270Y0156209D01*
X0017361Y0156341D01*
X0017456Y0156471D01*
X0017554Y0156598D01*
X0017655Y0156723D01*
X0017759Y0156846D01*
X0017866Y0156965D01*
X0017976Y0157082D01*
X0018089Y0157197D01*
X0018205Y0157308D01*
X0018323Y0157417D01*
X0018444Y0157522D01*
X0018568Y0157625D01*
X0018694Y0157725D01*
X0018823Y0157821D01*
X0018954Y0157914D01*
X0019087Y0158004D01*
X0019222Y0158091D01*
X0019360Y0158174D01*
X0019499Y0158253D01*
X0019641Y0158330D01*
X0019784Y0158403D01*
X0019929Y0158472D01*
X0020076Y0158537D01*
X0020224Y0158599D01*
X0020374Y0158658D01*
X0020525Y0158712D01*
X0020677Y0158763D01*
X0020831Y0158810D01*
X0020986Y0158853D01*
X0021141Y0158892D01*
X0021298Y0158928D01*
X0021456Y0158960D01*
X0021614Y0158987D01*
X0021773Y0159011D01*
X0021932Y0159031D01*
X0022092Y0159047D01*
X0022253Y0159059D01*
X0022413Y0159067D01*
X0022574Y0159071D01*
X0022734Y0159071D01*
X0022895Y0159067D01*
X0023055Y0159059D01*
X0023216Y0159047D01*
X0023376Y0159031D01*
X0023535Y0159011D01*
X0023694Y0158987D01*
X0023852Y0158960D01*
X0024010Y0158928D01*
X0024167Y0158892D01*
X0024322Y0158853D01*
X0024477Y0158810D01*
X0024631Y0158763D01*
X0024783Y0158712D01*
X0024934Y0158658D01*
X0025084Y0158599D01*
X0025232Y0158537D01*
X0025379Y0158472D01*
X0025524Y0158403D01*
X0025667Y0158330D01*
X0025809Y0158253D01*
X0025948Y0158174D01*
X0026086Y0158091D01*
X0026221Y0158004D01*
X0026354Y0157914D01*
X0026485Y0157821D01*
X0026614Y0157725D01*
X0026740Y0157625D01*
X0026864Y0157522D01*
X0026985Y0157417D01*
X0027103Y0157308D01*
X0027219Y0157197D01*
X0027332Y0157082D01*
X0027442Y0156965D01*
X0027549Y0156846D01*
X0027653Y0156723D01*
X0027754Y0156598D01*
X0027852Y0156471D01*
X0027947Y0156341D01*
X0028038Y0156209D01*
X0028127Y0156075D01*
X0028212Y0155938D01*
X0028293Y0155800D01*
X0028371Y0155659D01*
X0028446Y0155517D01*
X0028517Y0155373D01*
X0028584Y0155227D01*
X0028648Y0155079D01*
X0028708Y0154930D01*
X0028764Y0154780D01*
X0028817Y0154628D01*
X0028866Y0154475D01*
X0028911Y0154321D01*
X0028952Y0154166D01*
X0028990Y0154009D01*
X0029023Y0153852D01*
X0029053Y0153694D01*
X0029079Y0153536D01*
X0029100Y0153376D01*
X0029118Y0153217D01*
X0029132Y0153057D01*
X0029142Y0152896D01*
X0029148Y0152736D01*
X0029150Y0152575D01*
X0029148Y0152414D01*
X0029142Y0152254D01*
X0029132Y0152093D01*
X0029118Y0151933D01*
X0029100Y0151774D01*
X0029079Y0151614D01*
X0029053Y0151456D01*
X0029023Y0151298D01*
X0028990Y0151141D01*
X0028952Y0150984D01*
X0028911Y0150829D01*
X0028866Y0150675D01*
X0028817Y0150522D01*
X0028764Y0150370D01*
X0028708Y0150220D01*
X0028648Y0150071D01*
X0028584Y0149923D01*
X0028517Y0149777D01*
X0028446Y0149633D01*
X0028371Y0149491D01*
X0028293Y0149350D01*
X0028212Y0149212D01*
X0028127Y0149075D01*
X0028038Y0148941D01*
X0027947Y0148809D01*
X0027852Y0148679D01*
X0027754Y0148552D01*
X0027653Y0148427D01*
X0027549Y0148304D01*
X0027442Y0148185D01*
X0027332Y0148068D01*
X0027219Y0147953D01*
X0027103Y0147842D01*
X0026985Y0147733D01*
X0026864Y0147628D01*
X0026740Y0147525D01*
X0026614Y0147425D01*
X0026485Y0147329D01*
X0026354Y0147236D01*
X0026221Y0147146D01*
X0026086Y0147059D01*
X0025948Y0146976D01*
X0025809Y0146897D01*
X0025667Y0146820D01*
X0025524Y0146747D01*
X0025379Y0146678D01*
X0025232Y0146613D01*
X0025084Y0146551D01*
X0024934Y0146492D01*
X0024783Y0146438D01*
X0024631Y0146387D01*
X0024477Y0146340D01*
X0024322Y0146297D01*
X0024167Y0146258D01*
X0024010Y0146222D01*
X0023852Y0146190D01*
X0023694Y0146163D01*
X0023535Y0146139D01*
X0023376Y0146119D01*
X0023216Y0146103D01*
X0023055Y0146091D01*
X0022895Y0146083D01*
X0022734Y0146079D01*
X0022574Y0146079D01*
X0022413Y0146083D01*
X0022253Y0146091D01*
X0022092Y0146103D01*
X0021932Y0146119D01*
X0021773Y0146139D01*
X0021614Y0146163D01*
X0021456Y0146190D01*
X0021298Y0146222D01*
X0021141Y0146258D01*
X0020986Y0146297D01*
X0020831Y0146340D01*
X0020677Y0146387D01*
X0020525Y0146438D01*
X0020374Y0146492D01*
X0020224Y0146551D01*
X0020076Y0146613D01*
X0019929Y0146678D01*
X0019784Y0146747D01*
X0019641Y0146820D01*
X0019499Y0146897D01*
X0019360Y0146976D01*
X0019222Y0147059D01*
X0019087Y0147146D01*
X0018954Y0147236D01*
X0018823Y0147329D01*
X0018694Y0147425D01*
X0018568Y0147525D01*
X0018444Y0147628D01*
X0018323Y0147733D01*
X0018205Y0147842D01*
X0018089Y0147953D01*
X0017976Y0148068D01*
X0017866Y0148185D01*
X0017759Y0148304D01*
X0017655Y0148427D01*
X0017554Y0148552D01*
X0017456Y0148679D01*
X0017361Y0148809D01*
X0017270Y0148941D01*
X0017181Y0149075D01*
X0017096Y0149212D01*
X0017015Y0149350D01*
X0016937Y0149491D01*
X0016862Y0149633D01*
X0016791Y0149777D01*
X0016724Y0149923D01*
X0016660Y0150071D01*
X0016600Y0150220D01*
X0016544Y0150370D01*
X0016491Y0150522D01*
X0016442Y0150675D01*
X0016397Y0150829D01*
X0016356Y0150984D01*
X0016318Y0151141D01*
X0016285Y0151298D01*
X0016255Y0151456D01*
X0016229Y0151614D01*
X0016208Y0151774D01*
X0016190Y0151933D01*
X0016176Y0152093D01*
X0016166Y0152254D01*
X0016160Y0152414D01*
X0016158Y0152575D01*
X0213008Y0152575D02*
X0213010Y0152736D01*
X0213016Y0152896D01*
X0213026Y0153057D01*
X0213040Y0153217D01*
X0213058Y0153376D01*
X0213079Y0153536D01*
X0213105Y0153694D01*
X0213135Y0153852D01*
X0213168Y0154009D01*
X0213206Y0154166D01*
X0213247Y0154321D01*
X0213292Y0154475D01*
X0213341Y0154628D01*
X0213394Y0154780D01*
X0213450Y0154930D01*
X0213510Y0155079D01*
X0213574Y0155227D01*
X0213641Y0155373D01*
X0213712Y0155517D01*
X0213787Y0155659D01*
X0213865Y0155800D01*
X0213946Y0155938D01*
X0214031Y0156075D01*
X0214120Y0156209D01*
X0214211Y0156341D01*
X0214306Y0156471D01*
X0214404Y0156598D01*
X0214505Y0156723D01*
X0214609Y0156846D01*
X0214716Y0156965D01*
X0214826Y0157082D01*
X0214939Y0157197D01*
X0215055Y0157308D01*
X0215173Y0157417D01*
X0215294Y0157522D01*
X0215418Y0157625D01*
X0215544Y0157725D01*
X0215673Y0157821D01*
X0215804Y0157914D01*
X0215937Y0158004D01*
X0216072Y0158091D01*
X0216210Y0158174D01*
X0216349Y0158253D01*
X0216491Y0158330D01*
X0216634Y0158403D01*
X0216779Y0158472D01*
X0216926Y0158537D01*
X0217074Y0158599D01*
X0217224Y0158658D01*
X0217375Y0158712D01*
X0217527Y0158763D01*
X0217681Y0158810D01*
X0217836Y0158853D01*
X0217991Y0158892D01*
X0218148Y0158928D01*
X0218306Y0158960D01*
X0218464Y0158987D01*
X0218623Y0159011D01*
X0218782Y0159031D01*
X0218942Y0159047D01*
X0219103Y0159059D01*
X0219263Y0159067D01*
X0219424Y0159071D01*
X0219584Y0159071D01*
X0219745Y0159067D01*
X0219905Y0159059D01*
X0220066Y0159047D01*
X0220226Y0159031D01*
X0220385Y0159011D01*
X0220544Y0158987D01*
X0220702Y0158960D01*
X0220860Y0158928D01*
X0221017Y0158892D01*
X0221172Y0158853D01*
X0221327Y0158810D01*
X0221481Y0158763D01*
X0221633Y0158712D01*
X0221784Y0158658D01*
X0221934Y0158599D01*
X0222082Y0158537D01*
X0222229Y0158472D01*
X0222374Y0158403D01*
X0222517Y0158330D01*
X0222659Y0158253D01*
X0222798Y0158174D01*
X0222936Y0158091D01*
X0223071Y0158004D01*
X0223204Y0157914D01*
X0223335Y0157821D01*
X0223464Y0157725D01*
X0223590Y0157625D01*
X0223714Y0157522D01*
X0223835Y0157417D01*
X0223953Y0157308D01*
X0224069Y0157197D01*
X0224182Y0157082D01*
X0224292Y0156965D01*
X0224399Y0156846D01*
X0224503Y0156723D01*
X0224604Y0156598D01*
X0224702Y0156471D01*
X0224797Y0156341D01*
X0224888Y0156209D01*
X0224977Y0156075D01*
X0225062Y0155938D01*
X0225143Y0155800D01*
X0225221Y0155659D01*
X0225296Y0155517D01*
X0225367Y0155373D01*
X0225434Y0155227D01*
X0225498Y0155079D01*
X0225558Y0154930D01*
X0225614Y0154780D01*
X0225667Y0154628D01*
X0225716Y0154475D01*
X0225761Y0154321D01*
X0225802Y0154166D01*
X0225840Y0154009D01*
X0225873Y0153852D01*
X0225903Y0153694D01*
X0225929Y0153536D01*
X0225950Y0153376D01*
X0225968Y0153217D01*
X0225982Y0153057D01*
X0225992Y0152896D01*
X0225998Y0152736D01*
X0226000Y0152575D01*
X0225998Y0152414D01*
X0225992Y0152254D01*
X0225982Y0152093D01*
X0225968Y0151933D01*
X0225950Y0151774D01*
X0225929Y0151614D01*
X0225903Y0151456D01*
X0225873Y0151298D01*
X0225840Y0151141D01*
X0225802Y0150984D01*
X0225761Y0150829D01*
X0225716Y0150675D01*
X0225667Y0150522D01*
X0225614Y0150370D01*
X0225558Y0150220D01*
X0225498Y0150071D01*
X0225434Y0149923D01*
X0225367Y0149777D01*
X0225296Y0149633D01*
X0225221Y0149491D01*
X0225143Y0149350D01*
X0225062Y0149212D01*
X0224977Y0149075D01*
X0224888Y0148941D01*
X0224797Y0148809D01*
X0224702Y0148679D01*
X0224604Y0148552D01*
X0224503Y0148427D01*
X0224399Y0148304D01*
X0224292Y0148185D01*
X0224182Y0148068D01*
X0224069Y0147953D01*
X0223953Y0147842D01*
X0223835Y0147733D01*
X0223714Y0147628D01*
X0223590Y0147525D01*
X0223464Y0147425D01*
X0223335Y0147329D01*
X0223204Y0147236D01*
X0223071Y0147146D01*
X0222936Y0147059D01*
X0222798Y0146976D01*
X0222659Y0146897D01*
X0222517Y0146820D01*
X0222374Y0146747D01*
X0222229Y0146678D01*
X0222082Y0146613D01*
X0221934Y0146551D01*
X0221784Y0146492D01*
X0221633Y0146438D01*
X0221481Y0146387D01*
X0221327Y0146340D01*
X0221172Y0146297D01*
X0221017Y0146258D01*
X0220860Y0146222D01*
X0220702Y0146190D01*
X0220544Y0146163D01*
X0220385Y0146139D01*
X0220226Y0146119D01*
X0220066Y0146103D01*
X0219905Y0146091D01*
X0219745Y0146083D01*
X0219584Y0146079D01*
X0219424Y0146079D01*
X0219263Y0146083D01*
X0219103Y0146091D01*
X0218942Y0146103D01*
X0218782Y0146119D01*
X0218623Y0146139D01*
X0218464Y0146163D01*
X0218306Y0146190D01*
X0218148Y0146222D01*
X0217991Y0146258D01*
X0217836Y0146297D01*
X0217681Y0146340D01*
X0217527Y0146387D01*
X0217375Y0146438D01*
X0217224Y0146492D01*
X0217074Y0146551D01*
X0216926Y0146613D01*
X0216779Y0146678D01*
X0216634Y0146747D01*
X0216491Y0146820D01*
X0216349Y0146897D01*
X0216210Y0146976D01*
X0216072Y0147059D01*
X0215937Y0147146D01*
X0215804Y0147236D01*
X0215673Y0147329D01*
X0215544Y0147425D01*
X0215418Y0147525D01*
X0215294Y0147628D01*
X0215173Y0147733D01*
X0215055Y0147842D01*
X0214939Y0147953D01*
X0214826Y0148068D01*
X0214716Y0148185D01*
X0214609Y0148304D01*
X0214505Y0148427D01*
X0214404Y0148552D01*
X0214306Y0148679D01*
X0214211Y0148809D01*
X0214120Y0148941D01*
X0214031Y0149075D01*
X0213946Y0149212D01*
X0213865Y0149350D01*
X0213787Y0149491D01*
X0213712Y0149633D01*
X0213641Y0149777D01*
X0213574Y0149923D01*
X0213510Y0150071D01*
X0213450Y0150220D01*
X0213394Y0150370D01*
X0213341Y0150522D01*
X0213292Y0150675D01*
X0213247Y0150829D01*
X0213206Y0150984D01*
X0213168Y0151141D01*
X0213135Y0151298D01*
X0213105Y0151456D01*
X0213079Y0151614D01*
X0213058Y0151774D01*
X0213040Y0151933D01*
X0213026Y0152093D01*
X0213016Y0152254D01*
X0213010Y0152414D01*
X0213008Y0152575D01*
X0213008Y0022654D02*
X0213010Y0022815D01*
X0213016Y0022975D01*
X0213026Y0023136D01*
X0213040Y0023296D01*
X0213058Y0023455D01*
X0213079Y0023615D01*
X0213105Y0023773D01*
X0213135Y0023931D01*
X0213168Y0024088D01*
X0213206Y0024245D01*
X0213247Y0024400D01*
X0213292Y0024554D01*
X0213341Y0024707D01*
X0213394Y0024859D01*
X0213450Y0025009D01*
X0213510Y0025158D01*
X0213574Y0025306D01*
X0213641Y0025452D01*
X0213712Y0025596D01*
X0213787Y0025738D01*
X0213865Y0025879D01*
X0213946Y0026017D01*
X0214031Y0026154D01*
X0214120Y0026288D01*
X0214211Y0026420D01*
X0214306Y0026550D01*
X0214404Y0026677D01*
X0214505Y0026802D01*
X0214609Y0026925D01*
X0214716Y0027044D01*
X0214826Y0027161D01*
X0214939Y0027276D01*
X0215055Y0027387D01*
X0215173Y0027496D01*
X0215294Y0027601D01*
X0215418Y0027704D01*
X0215544Y0027804D01*
X0215673Y0027900D01*
X0215804Y0027993D01*
X0215937Y0028083D01*
X0216072Y0028170D01*
X0216210Y0028253D01*
X0216349Y0028332D01*
X0216491Y0028409D01*
X0216634Y0028482D01*
X0216779Y0028551D01*
X0216926Y0028616D01*
X0217074Y0028678D01*
X0217224Y0028737D01*
X0217375Y0028791D01*
X0217527Y0028842D01*
X0217681Y0028889D01*
X0217836Y0028932D01*
X0217991Y0028971D01*
X0218148Y0029007D01*
X0218306Y0029039D01*
X0218464Y0029066D01*
X0218623Y0029090D01*
X0218782Y0029110D01*
X0218942Y0029126D01*
X0219103Y0029138D01*
X0219263Y0029146D01*
X0219424Y0029150D01*
X0219584Y0029150D01*
X0219745Y0029146D01*
X0219905Y0029138D01*
X0220066Y0029126D01*
X0220226Y0029110D01*
X0220385Y0029090D01*
X0220544Y0029066D01*
X0220702Y0029039D01*
X0220860Y0029007D01*
X0221017Y0028971D01*
X0221172Y0028932D01*
X0221327Y0028889D01*
X0221481Y0028842D01*
X0221633Y0028791D01*
X0221784Y0028737D01*
X0221934Y0028678D01*
X0222082Y0028616D01*
X0222229Y0028551D01*
X0222374Y0028482D01*
X0222517Y0028409D01*
X0222659Y0028332D01*
X0222798Y0028253D01*
X0222936Y0028170D01*
X0223071Y0028083D01*
X0223204Y0027993D01*
X0223335Y0027900D01*
X0223464Y0027804D01*
X0223590Y0027704D01*
X0223714Y0027601D01*
X0223835Y0027496D01*
X0223953Y0027387D01*
X0224069Y0027276D01*
X0224182Y0027161D01*
X0224292Y0027044D01*
X0224399Y0026925D01*
X0224503Y0026802D01*
X0224604Y0026677D01*
X0224702Y0026550D01*
X0224797Y0026420D01*
X0224888Y0026288D01*
X0224977Y0026154D01*
X0225062Y0026017D01*
X0225143Y0025879D01*
X0225221Y0025738D01*
X0225296Y0025596D01*
X0225367Y0025452D01*
X0225434Y0025306D01*
X0225498Y0025158D01*
X0225558Y0025009D01*
X0225614Y0024859D01*
X0225667Y0024707D01*
X0225716Y0024554D01*
X0225761Y0024400D01*
X0225802Y0024245D01*
X0225840Y0024088D01*
X0225873Y0023931D01*
X0225903Y0023773D01*
X0225929Y0023615D01*
X0225950Y0023455D01*
X0225968Y0023296D01*
X0225982Y0023136D01*
X0225992Y0022975D01*
X0225998Y0022815D01*
X0226000Y0022654D01*
X0225998Y0022493D01*
X0225992Y0022333D01*
X0225982Y0022172D01*
X0225968Y0022012D01*
X0225950Y0021853D01*
X0225929Y0021693D01*
X0225903Y0021535D01*
X0225873Y0021377D01*
X0225840Y0021220D01*
X0225802Y0021063D01*
X0225761Y0020908D01*
X0225716Y0020754D01*
X0225667Y0020601D01*
X0225614Y0020449D01*
X0225558Y0020299D01*
X0225498Y0020150D01*
X0225434Y0020002D01*
X0225367Y0019856D01*
X0225296Y0019712D01*
X0225221Y0019570D01*
X0225143Y0019429D01*
X0225062Y0019291D01*
X0224977Y0019154D01*
X0224888Y0019020D01*
X0224797Y0018888D01*
X0224702Y0018758D01*
X0224604Y0018631D01*
X0224503Y0018506D01*
X0224399Y0018383D01*
X0224292Y0018264D01*
X0224182Y0018147D01*
X0224069Y0018032D01*
X0223953Y0017921D01*
X0223835Y0017812D01*
X0223714Y0017707D01*
X0223590Y0017604D01*
X0223464Y0017504D01*
X0223335Y0017408D01*
X0223204Y0017315D01*
X0223071Y0017225D01*
X0222936Y0017138D01*
X0222798Y0017055D01*
X0222659Y0016976D01*
X0222517Y0016899D01*
X0222374Y0016826D01*
X0222229Y0016757D01*
X0222082Y0016692D01*
X0221934Y0016630D01*
X0221784Y0016571D01*
X0221633Y0016517D01*
X0221481Y0016466D01*
X0221327Y0016419D01*
X0221172Y0016376D01*
X0221017Y0016337D01*
X0220860Y0016301D01*
X0220702Y0016269D01*
X0220544Y0016242D01*
X0220385Y0016218D01*
X0220226Y0016198D01*
X0220066Y0016182D01*
X0219905Y0016170D01*
X0219745Y0016162D01*
X0219584Y0016158D01*
X0219424Y0016158D01*
X0219263Y0016162D01*
X0219103Y0016170D01*
X0218942Y0016182D01*
X0218782Y0016198D01*
X0218623Y0016218D01*
X0218464Y0016242D01*
X0218306Y0016269D01*
X0218148Y0016301D01*
X0217991Y0016337D01*
X0217836Y0016376D01*
X0217681Y0016419D01*
X0217527Y0016466D01*
X0217375Y0016517D01*
X0217224Y0016571D01*
X0217074Y0016630D01*
X0216926Y0016692D01*
X0216779Y0016757D01*
X0216634Y0016826D01*
X0216491Y0016899D01*
X0216349Y0016976D01*
X0216210Y0017055D01*
X0216072Y0017138D01*
X0215937Y0017225D01*
X0215804Y0017315D01*
X0215673Y0017408D01*
X0215544Y0017504D01*
X0215418Y0017604D01*
X0215294Y0017707D01*
X0215173Y0017812D01*
X0215055Y0017921D01*
X0214939Y0018032D01*
X0214826Y0018147D01*
X0214716Y0018264D01*
X0214609Y0018383D01*
X0214505Y0018506D01*
X0214404Y0018631D01*
X0214306Y0018758D01*
X0214211Y0018888D01*
X0214120Y0019020D01*
X0214031Y0019154D01*
X0213946Y0019291D01*
X0213865Y0019429D01*
X0213787Y0019570D01*
X0213712Y0019712D01*
X0213641Y0019856D01*
X0213574Y0020002D01*
X0213510Y0020150D01*
X0213450Y0020299D01*
X0213394Y0020449D01*
X0213341Y0020601D01*
X0213292Y0020754D01*
X0213247Y0020908D01*
X0213206Y0021063D01*
X0213168Y0021220D01*
X0213135Y0021377D01*
X0213105Y0021535D01*
X0213079Y0021693D01*
X0213058Y0021853D01*
X0213040Y0022012D01*
X0213026Y0022172D01*
X0213016Y0022333D01*
X0213010Y0022493D01*
X0213008Y0022654D01*
X0016158Y0022654D02*
X0016160Y0022815D01*
X0016166Y0022975D01*
X0016176Y0023136D01*
X0016190Y0023296D01*
X0016208Y0023455D01*
X0016229Y0023615D01*
X0016255Y0023773D01*
X0016285Y0023931D01*
X0016318Y0024088D01*
X0016356Y0024245D01*
X0016397Y0024400D01*
X0016442Y0024554D01*
X0016491Y0024707D01*
X0016544Y0024859D01*
X0016600Y0025009D01*
X0016660Y0025158D01*
X0016724Y0025306D01*
X0016791Y0025452D01*
X0016862Y0025596D01*
X0016937Y0025738D01*
X0017015Y0025879D01*
X0017096Y0026017D01*
X0017181Y0026154D01*
X0017270Y0026288D01*
X0017361Y0026420D01*
X0017456Y0026550D01*
X0017554Y0026677D01*
X0017655Y0026802D01*
X0017759Y0026925D01*
X0017866Y0027044D01*
X0017976Y0027161D01*
X0018089Y0027276D01*
X0018205Y0027387D01*
X0018323Y0027496D01*
X0018444Y0027601D01*
X0018568Y0027704D01*
X0018694Y0027804D01*
X0018823Y0027900D01*
X0018954Y0027993D01*
X0019087Y0028083D01*
X0019222Y0028170D01*
X0019360Y0028253D01*
X0019499Y0028332D01*
X0019641Y0028409D01*
X0019784Y0028482D01*
X0019929Y0028551D01*
X0020076Y0028616D01*
X0020224Y0028678D01*
X0020374Y0028737D01*
X0020525Y0028791D01*
X0020677Y0028842D01*
X0020831Y0028889D01*
X0020986Y0028932D01*
X0021141Y0028971D01*
X0021298Y0029007D01*
X0021456Y0029039D01*
X0021614Y0029066D01*
X0021773Y0029090D01*
X0021932Y0029110D01*
X0022092Y0029126D01*
X0022253Y0029138D01*
X0022413Y0029146D01*
X0022574Y0029150D01*
X0022734Y0029150D01*
X0022895Y0029146D01*
X0023055Y0029138D01*
X0023216Y0029126D01*
X0023376Y0029110D01*
X0023535Y0029090D01*
X0023694Y0029066D01*
X0023852Y0029039D01*
X0024010Y0029007D01*
X0024167Y0028971D01*
X0024322Y0028932D01*
X0024477Y0028889D01*
X0024631Y0028842D01*
X0024783Y0028791D01*
X0024934Y0028737D01*
X0025084Y0028678D01*
X0025232Y0028616D01*
X0025379Y0028551D01*
X0025524Y0028482D01*
X0025667Y0028409D01*
X0025809Y0028332D01*
X0025948Y0028253D01*
X0026086Y0028170D01*
X0026221Y0028083D01*
X0026354Y0027993D01*
X0026485Y0027900D01*
X0026614Y0027804D01*
X0026740Y0027704D01*
X0026864Y0027601D01*
X0026985Y0027496D01*
X0027103Y0027387D01*
X0027219Y0027276D01*
X0027332Y0027161D01*
X0027442Y0027044D01*
X0027549Y0026925D01*
X0027653Y0026802D01*
X0027754Y0026677D01*
X0027852Y0026550D01*
X0027947Y0026420D01*
X0028038Y0026288D01*
X0028127Y0026154D01*
X0028212Y0026017D01*
X0028293Y0025879D01*
X0028371Y0025738D01*
X0028446Y0025596D01*
X0028517Y0025452D01*
X0028584Y0025306D01*
X0028648Y0025158D01*
X0028708Y0025009D01*
X0028764Y0024859D01*
X0028817Y0024707D01*
X0028866Y0024554D01*
X0028911Y0024400D01*
X0028952Y0024245D01*
X0028990Y0024088D01*
X0029023Y0023931D01*
X0029053Y0023773D01*
X0029079Y0023615D01*
X0029100Y0023455D01*
X0029118Y0023296D01*
X0029132Y0023136D01*
X0029142Y0022975D01*
X0029148Y0022815D01*
X0029150Y0022654D01*
X0029148Y0022493D01*
X0029142Y0022333D01*
X0029132Y0022172D01*
X0029118Y0022012D01*
X0029100Y0021853D01*
X0029079Y0021693D01*
X0029053Y0021535D01*
X0029023Y0021377D01*
X0028990Y0021220D01*
X0028952Y0021063D01*
X0028911Y0020908D01*
X0028866Y0020754D01*
X0028817Y0020601D01*
X0028764Y0020449D01*
X0028708Y0020299D01*
X0028648Y0020150D01*
X0028584Y0020002D01*
X0028517Y0019856D01*
X0028446Y0019712D01*
X0028371Y0019570D01*
X0028293Y0019429D01*
X0028212Y0019291D01*
X0028127Y0019154D01*
X0028038Y0019020D01*
X0027947Y0018888D01*
X0027852Y0018758D01*
X0027754Y0018631D01*
X0027653Y0018506D01*
X0027549Y0018383D01*
X0027442Y0018264D01*
X0027332Y0018147D01*
X0027219Y0018032D01*
X0027103Y0017921D01*
X0026985Y0017812D01*
X0026864Y0017707D01*
X0026740Y0017604D01*
X0026614Y0017504D01*
X0026485Y0017408D01*
X0026354Y0017315D01*
X0026221Y0017225D01*
X0026086Y0017138D01*
X0025948Y0017055D01*
X0025809Y0016976D01*
X0025667Y0016899D01*
X0025524Y0016826D01*
X0025379Y0016757D01*
X0025232Y0016692D01*
X0025084Y0016630D01*
X0024934Y0016571D01*
X0024783Y0016517D01*
X0024631Y0016466D01*
X0024477Y0016419D01*
X0024322Y0016376D01*
X0024167Y0016337D01*
X0024010Y0016301D01*
X0023852Y0016269D01*
X0023694Y0016242D01*
X0023535Y0016218D01*
X0023376Y0016198D01*
X0023216Y0016182D01*
X0023055Y0016170D01*
X0022895Y0016162D01*
X0022734Y0016158D01*
X0022574Y0016158D01*
X0022413Y0016162D01*
X0022253Y0016170D01*
X0022092Y0016182D01*
X0021932Y0016198D01*
X0021773Y0016218D01*
X0021614Y0016242D01*
X0021456Y0016269D01*
X0021298Y0016301D01*
X0021141Y0016337D01*
X0020986Y0016376D01*
X0020831Y0016419D01*
X0020677Y0016466D01*
X0020525Y0016517D01*
X0020374Y0016571D01*
X0020224Y0016630D01*
X0020076Y0016692D01*
X0019929Y0016757D01*
X0019784Y0016826D01*
X0019641Y0016899D01*
X0019499Y0016976D01*
X0019360Y0017055D01*
X0019222Y0017138D01*
X0019087Y0017225D01*
X0018954Y0017315D01*
X0018823Y0017408D01*
X0018694Y0017504D01*
X0018568Y0017604D01*
X0018444Y0017707D01*
X0018323Y0017812D01*
X0018205Y0017921D01*
X0018089Y0018032D01*
X0017976Y0018147D01*
X0017866Y0018264D01*
X0017759Y0018383D01*
X0017655Y0018506D01*
X0017554Y0018631D01*
X0017456Y0018758D01*
X0017361Y0018888D01*
X0017270Y0019020D01*
X0017181Y0019154D01*
X0017096Y0019291D01*
X0017015Y0019429D01*
X0016937Y0019570D01*
X0016862Y0019712D01*
X0016791Y0019856D01*
X0016724Y0020002D01*
X0016660Y0020150D01*
X0016600Y0020299D01*
X0016544Y0020449D01*
X0016491Y0020601D01*
X0016442Y0020754D01*
X0016397Y0020908D01*
X0016356Y0021063D01*
X0016318Y0021220D01*
X0016285Y0021377D01*
X0016255Y0021535D01*
X0016229Y0021693D01*
X0016208Y0021853D01*
X0016190Y0022012D01*
X0016176Y0022172D01*
X0016166Y0022333D01*
X0016160Y0022493D01*
X0016158Y0022654D01*
M02*
