G75*
%MOIN*%
%OFA0B0*%
%FSLAX25Y25*%
%IPPOS*%
%LPD*%
%AMOC8*
5,1,8,0,0,1.08239X$1,22.5*
%
%ADD10R,0.06299X0.03543*%
%ADD11C,0.06299*%
%ADD12OC8,0.07874*%
%ADD13C,0.05200*%
%ADD14C,0.05512*%
%ADD15OC8,0.05600*%
%ADD16C,0.01600*%
%ADD17C,0.06299*%
D10*
X0153283Y0021915D03*
X0153283Y0033333D03*
D11*
X0026433Y0108874D02*
X0020134Y0108874D01*
X0020134Y0118874D02*
X0026433Y0118874D01*
X0026433Y0128874D02*
X0020134Y0128874D01*
D12*
X0043283Y0196374D03*
X0053283Y0196374D03*
X0063283Y0196374D03*
X0073283Y0196374D03*
X0083283Y0196374D03*
X0093283Y0196374D03*
X0103283Y0196374D03*
X0113283Y0196374D03*
X0128283Y0196374D03*
X0138283Y0196374D03*
X0148283Y0196374D03*
X0158283Y0196374D03*
X0168283Y0196374D03*
X0178283Y0196374D03*
X0188283Y0196374D03*
X0198283Y0196374D03*
D13*
X0193283Y0136474D02*
X0193283Y0131274D01*
X0183283Y0131274D02*
X0183283Y0136474D01*
X0173283Y0136474D02*
X0173283Y0131274D01*
X0163283Y0131274D02*
X0163283Y0136474D01*
X0153283Y0136474D02*
X0153283Y0131274D01*
X0143283Y0131274D02*
X0143283Y0136474D01*
X0118283Y0136474D02*
X0118283Y0131274D01*
X0108283Y0131274D02*
X0108283Y0136474D01*
X0098283Y0136474D02*
X0098283Y0131274D01*
X0088283Y0131274D02*
X0088283Y0136474D01*
X0078283Y0136474D02*
X0078283Y0131274D01*
X0068283Y0131274D02*
X0068283Y0136474D01*
X0058283Y0136474D02*
X0058283Y0131274D01*
X0048283Y0131274D02*
X0048283Y0136474D01*
X0048283Y0106474D02*
X0048283Y0101274D01*
X0058283Y0101274D02*
X0058283Y0106474D01*
X0068283Y0106474D02*
X0068283Y0101274D01*
X0078283Y0101274D02*
X0078283Y0106474D01*
X0088283Y0106474D02*
X0088283Y0101274D01*
X0098283Y0101274D02*
X0098283Y0106474D01*
X0108283Y0106474D02*
X0108283Y0101274D01*
X0118283Y0101274D02*
X0118283Y0106474D01*
X0143283Y0106474D02*
X0143283Y0101274D01*
X0153283Y0101274D02*
X0153283Y0106474D01*
X0163283Y0106474D02*
X0163283Y0101274D01*
X0173283Y0101274D02*
X0173283Y0106474D01*
X0183283Y0106474D02*
X0183283Y0101274D01*
X0193283Y0101274D02*
X0193283Y0106474D01*
X0203283Y0106474D02*
X0203283Y0101274D01*
X0213283Y0101274D02*
X0213283Y0106474D01*
X0213283Y0131274D02*
X0213283Y0136474D01*
X0203283Y0136474D02*
X0203283Y0131274D01*
D14*
X0198283Y0161118D02*
X0198283Y0166630D01*
X0188283Y0166630D02*
X0188283Y0161118D01*
X0178283Y0161118D02*
X0178283Y0166630D01*
X0168283Y0166630D02*
X0168283Y0161118D01*
X0158283Y0161118D02*
X0158283Y0166630D01*
X0148283Y0166630D02*
X0148283Y0161118D01*
X0138283Y0161118D02*
X0138283Y0166630D01*
X0123283Y0166630D02*
X0123283Y0161118D01*
X0113283Y0161118D02*
X0113283Y0166630D01*
X0103283Y0166630D02*
X0103283Y0161118D01*
X0093283Y0161118D02*
X0093283Y0166630D01*
X0083283Y0166630D02*
X0083283Y0161118D01*
X0073283Y0161118D02*
X0073283Y0166630D01*
X0063283Y0166630D02*
X0063283Y0161118D01*
X0053283Y0161118D02*
X0053283Y0166630D01*
X0043283Y0166630D02*
X0043283Y0161118D01*
X0208283Y0161118D02*
X0208283Y0166630D01*
X0218283Y0166630D02*
X0218283Y0161118D01*
D15*
X0188283Y0068874D03*
X0178283Y0068874D03*
X0178283Y0058874D03*
X0178283Y0048874D03*
X0178283Y0038874D03*
X0178283Y0028874D03*
X0188283Y0028874D03*
X0188283Y0038874D03*
X0188283Y0048874D03*
X0188283Y0058874D03*
X0063283Y0058874D03*
X0053283Y0058874D03*
X0053283Y0048874D03*
X0053283Y0038874D03*
X0053283Y0028874D03*
X0063283Y0028874D03*
X0063283Y0038874D03*
X0063283Y0048874D03*
X0063283Y0068874D03*
X0053283Y0068874D03*
D16*
X0033147Y0009774D02*
X0208793Y0009774D01*
X0205623Y0013190D01*
X0203450Y0017702D01*
X0202704Y0022654D01*
X0203450Y0027605D01*
X0203450Y0027605D01*
X0205623Y0032117D01*
X0205623Y0032117D01*
X0209029Y0035788D01*
X0209029Y0035788D01*
X0213366Y0038292D01*
X0213366Y0038292D01*
X0218248Y0039407D01*
X0223242Y0039032D01*
X0223242Y0039032D01*
X0227904Y0037203D01*
X0231819Y0034080D01*
X0232383Y0033253D01*
X0232383Y0181346D01*
X0231819Y0180518D01*
X0227904Y0177396D01*
X0223242Y0175566D01*
X0218248Y0175192D01*
X0213366Y0176306D01*
X0209029Y0178810D01*
X0205623Y0182481D01*
X0203450Y0186993D01*
X0202860Y0190911D01*
X0202246Y0190296D01*
X0202246Y0181765D01*
X0210528Y0173483D01*
X0211642Y0172368D01*
X0212157Y0171126D01*
X0213283Y0169999D01*
X0214931Y0171647D01*
X0217106Y0172548D01*
X0219461Y0172548D01*
X0221636Y0171647D01*
X0223301Y0169982D01*
X0224202Y0167807D01*
X0224202Y0159941D01*
X0223301Y0157766D01*
X0222246Y0156711D01*
X0222246Y0150515D01*
X0226642Y0146118D01*
X0227246Y0144662D01*
X0227246Y0063086D01*
X0226642Y0061630D01*
X0225528Y0060515D01*
X0225528Y0060515D01*
X0201642Y0036630D01*
X0200528Y0035515D01*
X0199072Y0034912D01*
X0192753Y0034912D01*
X0190753Y0032912D01*
X0190751Y0032912D01*
X0192883Y0030779D01*
X0192883Y0028974D01*
X0188384Y0028974D01*
X0188384Y0028774D01*
X0192883Y0028774D01*
X0192883Y0026969D01*
X0190189Y0024274D01*
X0188383Y0024274D01*
X0188383Y0028774D01*
X0188183Y0028774D01*
X0188183Y0028974D01*
X0183683Y0028974D01*
X0183683Y0030779D01*
X0185816Y0032912D01*
X0185814Y0032912D01*
X0183814Y0034912D01*
X0182753Y0034912D01*
X0180753Y0032912D01*
X0180751Y0032912D01*
X0182883Y0030779D01*
X0182883Y0028974D01*
X0178384Y0028974D01*
X0178384Y0028774D01*
X0182883Y0028774D01*
X0182883Y0026969D01*
X0180189Y0024274D01*
X0178383Y0024274D01*
X0178383Y0028774D01*
X0178183Y0028774D01*
X0178183Y0028974D01*
X0173683Y0028974D01*
X0173683Y0030779D01*
X0175816Y0032912D01*
X0175814Y0032912D01*
X0173814Y0034912D01*
X0159595Y0034912D01*
X0159595Y0030932D01*
X0159114Y0029770D01*
X0158224Y0028880D01*
X0157062Y0028399D01*
X0149505Y0028399D01*
X0148343Y0028880D01*
X0147453Y0029770D01*
X0146972Y0030932D01*
X0146972Y0034912D01*
X0139595Y0034912D01*
X0139595Y0033869D01*
X0138634Y0031549D01*
X0136859Y0029773D01*
X0134539Y0028812D01*
X0132028Y0028812D01*
X0129708Y0029773D01*
X0127933Y0031549D01*
X0126972Y0033869D01*
X0126972Y0034912D01*
X0067753Y0034912D01*
X0065753Y0032912D01*
X0065751Y0032912D01*
X0067883Y0030779D01*
X0067883Y0028974D01*
X0063384Y0028974D01*
X0063384Y0028774D01*
X0067883Y0028774D01*
X0067883Y0026969D01*
X0065189Y0024274D01*
X0063383Y0024274D01*
X0063383Y0028774D01*
X0063183Y0028774D01*
X0063183Y0028974D01*
X0058683Y0028974D01*
X0058683Y0030779D01*
X0060816Y0032912D01*
X0060814Y0032912D01*
X0058814Y0034912D01*
X0057753Y0034912D01*
X0055753Y0032912D01*
X0055751Y0032912D01*
X0057883Y0030779D01*
X0057883Y0028974D01*
X0053384Y0028974D01*
X0053384Y0028774D01*
X0057883Y0028774D01*
X0057883Y0026969D01*
X0055189Y0024274D01*
X0053383Y0024274D01*
X0053383Y0028774D01*
X0053183Y0028774D01*
X0053183Y0028974D01*
X0048683Y0028974D01*
X0048683Y0030779D01*
X0050816Y0032912D01*
X0050814Y0032912D01*
X0048814Y0034912D01*
X0047495Y0034912D01*
X0046039Y0035515D01*
X0021039Y0060515D01*
X0019924Y0061630D01*
X0019321Y0063086D01*
X0019321Y0102562D01*
X0018878Y0102562D01*
X0016559Y0103523D01*
X0014783Y0105299D01*
X0013822Y0107619D01*
X0013822Y0110130D01*
X0014783Y0112449D01*
X0016559Y0114225D01*
X0017550Y0114636D01*
X0017540Y0114641D01*
X0016909Y0115099D01*
X0016359Y0115650D01*
X0015901Y0116280D01*
X0015547Y0116974D01*
X0015306Y0117715D01*
X0015184Y0118484D01*
X0015184Y0118788D01*
X0023198Y0118788D01*
X0023198Y0118960D01*
X0023369Y0118960D01*
X0023369Y0123824D01*
X0026823Y0123824D01*
X0027592Y0123702D01*
X0028333Y0123461D01*
X0029027Y0123107D01*
X0029658Y0122649D01*
X0030208Y0122098D01*
X0030666Y0121468D01*
X0031020Y0120774D01*
X0031261Y0120033D01*
X0031383Y0119264D01*
X0031383Y0118960D01*
X0023369Y0118960D01*
X0023369Y0118788D01*
X0031383Y0118788D01*
X0031383Y0118484D01*
X0031261Y0117715D01*
X0031020Y0116974D01*
X0030666Y0116280D01*
X0030208Y0115650D01*
X0029658Y0115099D01*
X0029027Y0114641D01*
X0029017Y0114636D01*
X0030008Y0114225D01*
X0031784Y0112449D01*
X0032745Y0110130D01*
X0032745Y0107619D01*
X0031784Y0105299D01*
X0030008Y0103523D01*
X0027689Y0102562D01*
X0027246Y0102562D01*
X0027246Y0065515D01*
X0049369Y0043392D01*
X0049852Y0043874D01*
X0047321Y0046404D01*
X0047321Y0049984D01*
X0046039Y0050515D01*
X0041039Y0055515D01*
X0039924Y0056630D01*
X0039321Y0058086D01*
X0039321Y0084662D01*
X0039924Y0086118D01*
X0049321Y0095515D01*
X0049321Y0096985D01*
X0049314Y0096982D01*
X0048630Y0096874D01*
X0048284Y0096874D01*
X0048284Y0103874D01*
X0048284Y0110874D01*
X0048630Y0110874D01*
X0049314Y0110766D01*
X0049321Y0110763D01*
X0049321Y0119662D01*
X0049924Y0121118D01*
X0054321Y0125515D01*
X0054321Y0127087D01*
X0053399Y0128010D01*
X0053283Y0128288D01*
X0053168Y0128010D01*
X0051548Y0126389D01*
X0049430Y0125512D01*
X0047137Y0125512D01*
X0045019Y0126389D01*
X0043399Y0128010D01*
X0042521Y0130128D01*
X0042521Y0137620D01*
X0043399Y0139738D01*
X0044321Y0140661D01*
X0044321Y0141410D01*
X0042933Y0142799D01*
X0041972Y0145119D01*
X0041972Y0147630D01*
X0042933Y0149949D01*
X0044708Y0151725D01*
X0044794Y0151760D01*
X0041039Y0155515D01*
X0040822Y0155732D01*
X0039931Y0156101D01*
X0038266Y0157766D01*
X0037365Y0159941D01*
X0037365Y0167807D01*
X0038266Y0169982D01*
X0039321Y0171037D01*
X0039321Y0190296D01*
X0039266Y0190352D01*
X0039266Y0189441D01*
X0037790Y0184656D01*
X0037790Y0184656D01*
X0034969Y0180518D01*
X0034969Y0180518D01*
X0034969Y0180518D01*
X0031054Y0177396D01*
X0031054Y0177396D01*
X0026392Y0175566D01*
X0026392Y0175566D01*
X0021398Y0175192D01*
X0016516Y0176306D01*
X0016516Y0176306D01*
X0012179Y0178810D01*
X0012179Y0178810D01*
X0012179Y0178810D01*
X0009774Y0181402D01*
X0009774Y0033196D01*
X0012179Y0035788D01*
X0016516Y0038292D01*
X0021398Y0039407D01*
X0026392Y0039032D01*
X0031054Y0037203D01*
X0034969Y0034080D01*
X0037790Y0029943D01*
X0039266Y0025157D01*
X0039266Y0020150D01*
X0037790Y0015364D01*
X0034969Y0011227D01*
X0034969Y0011227D01*
X0033147Y0009774D01*
X0034023Y0010473D02*
X0208144Y0010473D01*
X0206661Y0012071D02*
X0035545Y0012071D01*
X0034969Y0011227D02*
X0034969Y0011227D01*
X0036634Y0013670D02*
X0205392Y0013670D01*
X0205623Y0013190D02*
X0205623Y0013190D01*
X0204622Y0015268D02*
X0037724Y0015268D01*
X0037790Y0015364D02*
X0037790Y0015364D01*
X0038253Y0016867D02*
X0203852Y0016867D01*
X0203450Y0017702D02*
X0203450Y0017702D01*
X0203335Y0018465D02*
X0157123Y0018465D01*
X0157128Y0018466D02*
X0156670Y0018344D01*
X0153369Y0018344D01*
X0153369Y0021829D01*
X0153198Y0021829D01*
X0153198Y0018344D01*
X0149897Y0018344D01*
X0149439Y0018466D01*
X0149029Y0018703D01*
X0148694Y0019038D01*
X0148457Y0019449D01*
X0148334Y0019907D01*
X0148334Y0021830D01*
X0153198Y0021830D01*
X0153198Y0022001D01*
X0153369Y0022001D01*
X0153369Y0025487D01*
X0156670Y0025487D01*
X0157128Y0025364D01*
X0157538Y0025127D01*
X0157873Y0024792D01*
X0158110Y0024382D01*
X0158233Y0023924D01*
X0158233Y0022001D01*
X0153369Y0022001D01*
X0153369Y0021830D01*
X0158233Y0021830D01*
X0158233Y0019907D01*
X0158110Y0019449D01*
X0157873Y0019038D01*
X0157538Y0018703D01*
X0157128Y0018466D01*
X0158233Y0020064D02*
X0203094Y0020064D01*
X0202853Y0021662D02*
X0158233Y0021662D01*
X0158233Y0023261D02*
X0202795Y0023261D01*
X0203036Y0024859D02*
X0190774Y0024859D01*
X0192372Y0026458D02*
X0203277Y0026458D01*
X0203667Y0028056D02*
X0192883Y0028056D01*
X0192883Y0029655D02*
X0204437Y0029655D01*
X0205207Y0031253D02*
X0192410Y0031253D01*
X0190811Y0032852D02*
X0206305Y0032852D01*
X0207788Y0034450D02*
X0192291Y0034450D01*
X0188283Y0038874D02*
X0198283Y0038874D01*
X0223283Y0063874D01*
X0223283Y0133874D01*
X0213283Y0133874D01*
X0207530Y0137642D02*
X0208399Y0139738D01*
X0210019Y0141359D01*
X0212137Y0142236D01*
X0214430Y0142236D01*
X0216548Y0141359D01*
X0218168Y0139738D01*
X0218956Y0137836D01*
X0219321Y0137836D01*
X0219321Y0142233D01*
X0216039Y0145515D01*
X0214924Y0146630D01*
X0214321Y0148086D01*
X0214321Y0156711D01*
X0213283Y0157749D01*
X0212246Y0156711D01*
X0212246Y0155586D01*
X0211642Y0154130D01*
X0210528Y0153015D01*
X0202246Y0144733D01*
X0202246Y0140763D01*
X0202253Y0140766D01*
X0202937Y0140874D01*
X0203283Y0140874D01*
X0203283Y0133874D01*
X0203284Y0133874D01*
X0203284Y0140874D01*
X0203630Y0140874D01*
X0204314Y0140766D01*
X0204972Y0140552D01*
X0205590Y0140237D01*
X0206150Y0139830D01*
X0206640Y0139340D01*
X0207047Y0138780D01*
X0207361Y0138163D01*
X0207530Y0137642D01*
X0207264Y0138353D02*
X0207825Y0138353D01*
X0208283Y0138874D02*
X0208283Y0127624D01*
X0208399Y0128010D02*
X0207530Y0130106D01*
X0207361Y0129585D01*
X0207047Y0128968D01*
X0206640Y0128408D01*
X0206150Y0127918D01*
X0205590Y0127511D01*
X0204972Y0127196D01*
X0204314Y0126982D01*
X0203630Y0126874D01*
X0203284Y0126874D01*
X0203284Y0133874D01*
X0203283Y0133874D01*
X0203283Y0126874D01*
X0202937Y0126874D01*
X0202253Y0126982D01*
X0202246Y0126985D01*
X0202246Y0116836D01*
X0201642Y0115380D01*
X0197246Y0110983D01*
X0197246Y0110661D01*
X0198168Y0109738D01*
X0198283Y0109460D01*
X0198399Y0109738D01*
X0200019Y0111359D01*
X0202137Y0112236D01*
X0204430Y0112236D01*
X0206548Y0111359D01*
X0208168Y0109738D01*
X0208283Y0109460D01*
X0208399Y0109738D01*
X0210019Y0111359D01*
X0212137Y0112236D01*
X0214430Y0112236D01*
X0216548Y0111359D01*
X0218168Y0109738D01*
X0219046Y0107620D01*
X0219046Y0100128D01*
X0218168Y0098010D01*
X0217246Y0097087D01*
X0217246Y0069336D01*
X0216642Y0067880D01*
X0205392Y0056630D01*
X0204278Y0055515D01*
X0202822Y0054912D01*
X0192753Y0054912D01*
X0191715Y0053874D01*
X0194246Y0051344D01*
X0194246Y0046404D01*
X0191715Y0043874D01*
X0192753Y0042836D01*
X0196642Y0042836D01*
X0219321Y0065515D01*
X0219321Y0129912D01*
X0218956Y0129912D01*
X0218168Y0128010D01*
X0216548Y0126389D01*
X0214430Y0125512D01*
X0212137Y0125512D01*
X0210019Y0126389D01*
X0208399Y0128010D01*
X0208087Y0128762D02*
X0206897Y0128762D01*
X0204872Y0127164D02*
X0209245Y0127164D01*
X0212008Y0125565D02*
X0202246Y0125565D01*
X0202246Y0123967D02*
X0219321Y0123967D01*
X0219321Y0125565D02*
X0214559Y0125565D01*
X0217322Y0127164D02*
X0219321Y0127164D01*
X0219321Y0128762D02*
X0218480Y0128762D01*
X0223283Y0133874D02*
X0223283Y0143874D01*
X0218283Y0148874D01*
X0218283Y0163874D01*
X0224202Y0163930D02*
X0232383Y0163930D01*
X0232383Y0165528D02*
X0224202Y0165528D01*
X0224202Y0167127D02*
X0232383Y0167127D01*
X0232383Y0168725D02*
X0223821Y0168725D01*
X0222959Y0170324D02*
X0232383Y0170324D01*
X0232383Y0171922D02*
X0220972Y0171922D01*
X0223242Y0175566D02*
X0223242Y0175566D01*
X0226177Y0176718D02*
X0232383Y0176718D01*
X0232383Y0178316D02*
X0229058Y0178316D01*
X0227904Y0177396D02*
X0227904Y0177396D01*
X0231063Y0179915D02*
X0232383Y0179915D01*
X0231819Y0180518D02*
X0231819Y0180518D01*
X0231819Y0180518D01*
X0232383Y0175119D02*
X0208892Y0175119D01*
X0210490Y0173521D02*
X0232383Y0173521D01*
X0232383Y0162331D02*
X0224202Y0162331D01*
X0224202Y0160733D02*
X0232383Y0160733D01*
X0232383Y0159134D02*
X0223867Y0159134D01*
X0223070Y0157536D02*
X0232383Y0157536D01*
X0232383Y0155937D02*
X0222246Y0155937D01*
X0222246Y0154339D02*
X0232383Y0154339D01*
X0232383Y0152740D02*
X0222246Y0152740D01*
X0222246Y0151142D02*
X0232383Y0151142D01*
X0232383Y0149543D02*
X0223218Y0149543D01*
X0224816Y0147945D02*
X0232383Y0147945D01*
X0232383Y0146346D02*
X0226415Y0146346D01*
X0227210Y0144747D02*
X0232383Y0144747D01*
X0232383Y0143149D02*
X0227246Y0143149D01*
X0227246Y0141550D02*
X0232383Y0141550D01*
X0232383Y0139952D02*
X0227246Y0139952D01*
X0227246Y0138353D02*
X0232383Y0138353D01*
X0232383Y0136755D02*
X0227246Y0136755D01*
X0227246Y0135156D02*
X0232383Y0135156D01*
X0232383Y0133558D02*
X0227246Y0133558D01*
X0227246Y0131959D02*
X0232383Y0131959D01*
X0232383Y0130361D02*
X0227246Y0130361D01*
X0227246Y0128762D02*
X0232383Y0128762D01*
X0232383Y0127164D02*
X0227246Y0127164D01*
X0227246Y0125565D02*
X0232383Y0125565D01*
X0232383Y0123967D02*
X0227246Y0123967D01*
X0227246Y0122368D02*
X0232383Y0122368D01*
X0232383Y0120770D02*
X0227246Y0120770D01*
X0227246Y0119171D02*
X0232383Y0119171D01*
X0232383Y0117573D02*
X0227246Y0117573D01*
X0227246Y0115974D02*
X0232383Y0115974D01*
X0232383Y0114376D02*
X0227246Y0114376D01*
X0227246Y0112777D02*
X0232383Y0112777D01*
X0232383Y0111179D02*
X0227246Y0111179D01*
X0227246Y0109580D02*
X0232383Y0109580D01*
X0232383Y0107982D02*
X0227246Y0107982D01*
X0227246Y0106383D02*
X0232383Y0106383D01*
X0232383Y0104785D02*
X0227246Y0104785D01*
X0227246Y0103186D02*
X0232383Y0103186D01*
X0232383Y0101588D02*
X0227246Y0101588D01*
X0227246Y0099989D02*
X0232383Y0099989D01*
X0232383Y0098391D02*
X0227246Y0098391D01*
X0227246Y0096792D02*
X0232383Y0096792D01*
X0232383Y0095194D02*
X0227246Y0095194D01*
X0227246Y0093595D02*
X0232383Y0093595D01*
X0232383Y0091997D02*
X0227246Y0091997D01*
X0227246Y0090398D02*
X0232383Y0090398D01*
X0232383Y0088800D02*
X0227246Y0088800D01*
X0227246Y0087201D02*
X0232383Y0087201D01*
X0232383Y0085603D02*
X0227246Y0085603D01*
X0227246Y0084004D02*
X0232383Y0084004D01*
X0232383Y0082406D02*
X0227246Y0082406D01*
X0227246Y0080807D02*
X0232383Y0080807D01*
X0232383Y0079209D02*
X0227246Y0079209D01*
X0227246Y0077610D02*
X0232383Y0077610D01*
X0232383Y0076011D02*
X0227246Y0076011D01*
X0227246Y0074413D02*
X0232383Y0074413D01*
X0232383Y0072814D02*
X0227246Y0072814D01*
X0227246Y0071216D02*
X0232383Y0071216D01*
X0232383Y0069617D02*
X0227246Y0069617D01*
X0227246Y0068019D02*
X0232383Y0068019D01*
X0232383Y0066420D02*
X0227246Y0066420D01*
X0227246Y0064822D02*
X0232383Y0064822D01*
X0232383Y0063223D02*
X0227246Y0063223D01*
X0226638Y0061625D02*
X0232383Y0061625D01*
X0232383Y0060026D02*
X0225039Y0060026D01*
X0223441Y0058428D02*
X0232383Y0058428D01*
X0232383Y0056829D02*
X0221842Y0056829D01*
X0220244Y0055231D02*
X0232383Y0055231D01*
X0232383Y0053632D02*
X0218645Y0053632D01*
X0217047Y0052034D02*
X0232383Y0052034D01*
X0232383Y0050435D02*
X0215448Y0050435D01*
X0213850Y0048837D02*
X0232383Y0048837D01*
X0232383Y0047238D02*
X0212251Y0047238D01*
X0210653Y0045640D02*
X0232383Y0045640D01*
X0232383Y0044041D02*
X0209054Y0044041D01*
X0207456Y0042443D02*
X0232383Y0042443D01*
X0232383Y0040844D02*
X0205857Y0040844D01*
X0204259Y0039246D02*
X0217544Y0039246D01*
X0218248Y0039407D02*
X0218248Y0039407D01*
X0220395Y0039246D02*
X0232383Y0039246D01*
X0232383Y0037647D02*
X0226771Y0037647D01*
X0227904Y0037203D02*
X0227904Y0037203D01*
X0229351Y0036049D02*
X0232383Y0036049D01*
X0232383Y0034450D02*
X0231356Y0034450D01*
X0231819Y0034080D02*
X0231819Y0034080D01*
X0231819Y0034080D01*
X0212249Y0037647D02*
X0202660Y0037647D01*
X0201062Y0036049D02*
X0209480Y0036049D01*
X0199446Y0045640D02*
X0193481Y0045640D01*
X0194246Y0047238D02*
X0201044Y0047238D01*
X0202643Y0048837D02*
X0194246Y0048837D01*
X0194246Y0050435D02*
X0204241Y0050435D01*
X0205840Y0052034D02*
X0193555Y0052034D01*
X0191957Y0053632D02*
X0207438Y0053632D01*
X0209037Y0055231D02*
X0203592Y0055231D01*
X0205592Y0056829D02*
X0210635Y0056829D01*
X0212234Y0058428D02*
X0207191Y0058428D01*
X0208789Y0060026D02*
X0213832Y0060026D01*
X0215431Y0061625D02*
X0210388Y0061625D01*
X0211986Y0063223D02*
X0217029Y0063223D01*
X0218628Y0064822D02*
X0213585Y0064822D01*
X0215183Y0066420D02*
X0219321Y0066420D01*
X0219321Y0068019D02*
X0216700Y0068019D01*
X0217246Y0069617D02*
X0219321Y0069617D01*
X0219321Y0071216D02*
X0217246Y0071216D01*
X0217246Y0072814D02*
X0219321Y0072814D01*
X0219321Y0074413D02*
X0217246Y0074413D01*
X0217246Y0076011D02*
X0219321Y0076011D01*
X0219321Y0077610D02*
X0217246Y0077610D01*
X0217246Y0079209D02*
X0219321Y0079209D01*
X0219321Y0080807D02*
X0217246Y0080807D01*
X0217246Y0082406D02*
X0219321Y0082406D01*
X0219321Y0084004D02*
X0217246Y0084004D01*
X0217246Y0085603D02*
X0219321Y0085603D01*
X0219321Y0087201D02*
X0217246Y0087201D01*
X0217246Y0088800D02*
X0219321Y0088800D01*
X0219321Y0090398D02*
X0217246Y0090398D01*
X0217246Y0091997D02*
X0219321Y0091997D01*
X0219321Y0093595D02*
X0217246Y0093595D01*
X0217246Y0095194D02*
X0219321Y0095194D01*
X0219321Y0096792D02*
X0217246Y0096792D01*
X0218326Y0098391D02*
X0219321Y0098391D01*
X0219321Y0099989D02*
X0218988Y0099989D01*
X0219046Y0101588D02*
X0219321Y0101588D01*
X0219321Y0103186D02*
X0219046Y0103186D01*
X0219046Y0104785D02*
X0219321Y0104785D01*
X0219321Y0106383D02*
X0219046Y0106383D01*
X0218896Y0107982D02*
X0219321Y0107982D01*
X0219321Y0109580D02*
X0218234Y0109580D01*
X0219321Y0111179D02*
X0216728Y0111179D01*
X0219321Y0112777D02*
X0199040Y0112777D01*
X0199839Y0111179D02*
X0197442Y0111179D01*
X0198283Y0110124D02*
X0198283Y0097624D01*
X0198168Y0098010D02*
X0196548Y0096389D01*
X0194430Y0095512D01*
X0192137Y0095512D01*
X0190019Y0096389D01*
X0188399Y0098010D01*
X0188283Y0098288D01*
X0188168Y0098010D01*
X0186548Y0096389D01*
X0184430Y0095512D01*
X0182137Y0095512D01*
X0180019Y0096389D01*
X0178399Y0098010D01*
X0178283Y0098288D01*
X0178168Y0098010D01*
X0176548Y0096389D01*
X0174430Y0095512D01*
X0172137Y0095512D01*
X0170019Y0096389D01*
X0168399Y0098010D01*
X0168283Y0098288D01*
X0168168Y0098010D01*
X0166548Y0096389D01*
X0164430Y0095512D01*
X0162246Y0095512D01*
X0162246Y0088086D01*
X0161642Y0086630D01*
X0160528Y0085515D01*
X0160528Y0085515D01*
X0158657Y0083644D01*
X0159595Y0081380D01*
X0159595Y0078869D01*
X0158634Y0076549D01*
X0156859Y0074773D01*
X0154539Y0073812D01*
X0152028Y0073812D01*
X0149708Y0074773D01*
X0147933Y0076549D01*
X0146972Y0078869D01*
X0146972Y0081380D01*
X0147933Y0083699D01*
X0149622Y0085389D01*
X0149924Y0086118D01*
X0151039Y0087233D01*
X0151039Y0087233D01*
X0154321Y0090515D01*
X0154321Y0095512D01*
X0152137Y0095512D01*
X0150019Y0096389D01*
X0148399Y0098010D01*
X0147530Y0100106D01*
X0147361Y0099585D01*
X0147047Y0098968D01*
X0146640Y0098408D01*
X0146150Y0097918D01*
X0145590Y0097511D01*
X0144972Y0097196D01*
X0144314Y0096982D01*
X0143630Y0096874D01*
X0143284Y0096874D01*
X0143284Y0103874D01*
X0143284Y0110874D01*
X0143630Y0110874D01*
X0144314Y0110766D01*
X0144972Y0110552D01*
X0145590Y0110237D01*
X0146150Y0109830D01*
X0146640Y0109340D01*
X0147047Y0108780D01*
X0147361Y0108163D01*
X0147530Y0107642D01*
X0148399Y0109738D01*
X0150019Y0111359D01*
X0151028Y0111777D01*
X0141039Y0121765D01*
X0139924Y0122880D01*
X0139321Y0124336D01*
X0139321Y0127087D01*
X0138399Y0128010D01*
X0137521Y0130128D01*
X0137521Y0137620D01*
X0138399Y0139738D01*
X0138723Y0140062D01*
X0137028Y0140062D01*
X0134708Y0141023D01*
X0132933Y0142799D01*
X0131972Y0145119D01*
X0131972Y0147630D01*
X0132933Y0149949D01*
X0134708Y0151725D01*
X0137028Y0152686D01*
X0139539Y0152686D01*
X0141859Y0151725D01*
X0143248Y0150336D01*
X0143971Y0150336D01*
X0143539Y0150515D01*
X0142424Y0151630D01*
X0138854Y0155200D01*
X0137106Y0155200D01*
X0134931Y0156101D01*
X0133266Y0157766D01*
X0132365Y0159941D01*
X0132365Y0167807D01*
X0133266Y0169982D01*
X0134321Y0171037D01*
X0134321Y0179733D01*
X0124924Y0189130D01*
X0124526Y0190092D01*
X0121184Y0193433D01*
X0121184Y0199315D01*
X0125343Y0203473D01*
X0131224Y0203473D01*
X0133283Y0201414D01*
X0135343Y0203473D01*
X0141224Y0203473D01*
X0143283Y0201414D01*
X0145343Y0203473D01*
X0151224Y0203473D01*
X0153283Y0201414D01*
X0155343Y0203473D01*
X0161224Y0203473D01*
X0163283Y0201414D01*
X0165343Y0203473D01*
X0171224Y0203473D01*
X0173283Y0201414D01*
X0175343Y0203473D01*
X0181224Y0203473D01*
X0183283Y0201414D01*
X0185343Y0203473D01*
X0191224Y0203473D01*
X0193283Y0201414D01*
X0195343Y0203473D01*
X0201224Y0203473D01*
X0204864Y0199833D01*
X0205623Y0201409D01*
X0208793Y0204824D01*
X0033147Y0204824D01*
X0034969Y0203372D01*
X0034969Y0203372D01*
X0034969Y0203372D01*
X0037106Y0200237D01*
X0040343Y0203473D01*
X0046224Y0203473D01*
X0048283Y0201414D01*
X0050343Y0203473D01*
X0056224Y0203473D01*
X0058283Y0201414D01*
X0060343Y0203473D01*
X0066224Y0203473D01*
X0068283Y0201414D01*
X0070343Y0203473D01*
X0076224Y0203473D01*
X0078283Y0201414D01*
X0080343Y0203473D01*
X0086224Y0203473D01*
X0088283Y0201414D01*
X0090343Y0203473D01*
X0096224Y0203473D01*
X0098283Y0201414D01*
X0100343Y0203473D01*
X0106224Y0203473D01*
X0108283Y0201414D01*
X0110343Y0203473D01*
X0116224Y0203473D01*
X0120383Y0199315D01*
X0120383Y0193433D01*
X0117246Y0190296D01*
X0117246Y0171037D01*
X0118283Y0169999D01*
X0119931Y0171647D01*
X0122106Y0172548D01*
X0124461Y0172548D01*
X0126636Y0171647D01*
X0128301Y0169982D01*
X0129202Y0167807D01*
X0129202Y0159941D01*
X0128301Y0157766D01*
X0127246Y0156711D01*
X0127246Y0120515D01*
X0136642Y0111118D01*
X0137246Y0109662D01*
X0137246Y0085088D01*
X0138634Y0083699D01*
X0139595Y0081380D01*
X0139595Y0078869D01*
X0138634Y0076549D01*
X0136859Y0074773D01*
X0134539Y0073812D01*
X0132028Y0073812D01*
X0129708Y0074773D01*
X0127933Y0076549D01*
X0127658Y0077210D01*
X0127384Y0076549D01*
X0125609Y0074773D01*
X0123289Y0073812D01*
X0120778Y0073812D01*
X0118458Y0074773D01*
X0116683Y0076549D01*
X0115722Y0078869D01*
X0115722Y0081380D01*
X0116683Y0083699D01*
X0118071Y0085088D01*
X0118071Y0085983D01*
X0114924Y0089130D01*
X0114321Y0090586D01*
X0114321Y0097087D01*
X0113399Y0098010D01*
X0113283Y0098288D01*
X0113168Y0098010D01*
X0112246Y0097087D01*
X0112246Y0072836D01*
X0169321Y0072836D01*
X0169321Y0074662D01*
X0169924Y0076118D01*
X0171039Y0077233D01*
X0181039Y0087233D01*
X0182495Y0087836D01*
X0191642Y0087836D01*
X0199321Y0095515D01*
X0199321Y0097087D01*
X0198399Y0098010D01*
X0198283Y0098288D01*
X0198168Y0098010D01*
X0199321Y0096792D02*
X0196951Y0096792D01*
X0199000Y0095194D02*
X0162246Y0095194D01*
X0162246Y0093595D02*
X0197401Y0093595D01*
X0195803Y0091997D02*
X0162246Y0091997D01*
X0162246Y0090398D02*
X0194204Y0090398D01*
X0192606Y0088800D02*
X0162246Y0088800D01*
X0161879Y0087201D02*
X0181007Y0087201D01*
X0179409Y0085603D02*
X0160615Y0085603D01*
X0159017Y0084004D02*
X0177810Y0084004D01*
X0176212Y0082406D02*
X0159170Y0082406D01*
X0159595Y0080807D02*
X0174613Y0080807D01*
X0173015Y0079209D02*
X0159595Y0079209D01*
X0159074Y0077610D02*
X0171416Y0077610D01*
X0169880Y0076011D02*
X0158097Y0076011D01*
X0155989Y0074413D02*
X0169321Y0074413D01*
X0173283Y0073874D02*
X0173283Y0068874D01*
X0108283Y0068874D01*
X0108283Y0103874D01*
X0103283Y0109460D02*
X0103399Y0109738D01*
X0105019Y0111359D01*
X0107137Y0112236D01*
X0109430Y0112236D01*
X0111548Y0111359D01*
X0113168Y0109738D01*
X0113283Y0109460D01*
X0113399Y0109738D01*
X0115019Y0111359D01*
X0117137Y0112236D01*
X0119430Y0112236D01*
X0121548Y0111359D01*
X0123168Y0109738D01*
X0124046Y0107620D01*
X0124046Y0100128D01*
X0123168Y0098010D01*
X0122246Y0097087D01*
X0122246Y0093015D01*
X0125392Y0089868D01*
X0125996Y0088412D01*
X0125996Y0086836D01*
X0125996Y0085088D01*
X0127384Y0083699D01*
X0127658Y0083038D01*
X0127933Y0083699D01*
X0129321Y0085088D01*
X0129321Y0107233D01*
X0119924Y0116630D01*
X0119321Y0118086D01*
X0119321Y0125512D01*
X0117137Y0125512D01*
X0115019Y0126389D01*
X0113399Y0128010D01*
X0112530Y0130106D01*
X0112361Y0129585D01*
X0112047Y0128968D01*
X0111640Y0128408D01*
X0111150Y0127918D01*
X0110590Y0127511D01*
X0109972Y0127196D01*
X0109314Y0126982D01*
X0108630Y0126874D01*
X0108284Y0126874D01*
X0108284Y0133874D01*
X0108284Y0140874D01*
X0108630Y0140874D01*
X0109314Y0140766D01*
X0109972Y0140552D01*
X0110590Y0140237D01*
X0111150Y0139830D01*
X0111640Y0139340D01*
X0112047Y0138780D01*
X0112361Y0138163D01*
X0112530Y0137642D01*
X0113399Y0139738D01*
X0115019Y0141359D01*
X0117137Y0142236D01*
X0119321Y0142236D01*
X0119321Y0156711D01*
X0118283Y0157749D01*
X0116636Y0156101D01*
X0115745Y0155732D01*
X0107246Y0147233D01*
X0107246Y0140763D01*
X0107253Y0140766D01*
X0107937Y0140874D01*
X0108283Y0140874D01*
X0108283Y0133874D01*
X0108284Y0133874D01*
X0108283Y0133874D01*
X0108283Y0126874D01*
X0107937Y0126874D01*
X0107253Y0126982D01*
X0107246Y0126985D01*
X0107246Y0116836D01*
X0106642Y0115380D01*
X0105528Y0114265D01*
X0102246Y0110983D01*
X0102246Y0110661D01*
X0103168Y0109738D01*
X0103283Y0109460D01*
X0103234Y0109580D02*
X0103333Y0109580D01*
X0102442Y0111179D02*
X0104839Y0111179D01*
X0104040Y0112777D02*
X0123777Y0112777D01*
X0125375Y0111179D02*
X0121728Y0111179D01*
X0123234Y0109580D02*
X0126974Y0109580D01*
X0128572Y0107982D02*
X0123896Y0107982D01*
X0124046Y0106383D02*
X0129321Y0106383D01*
X0129321Y0104785D02*
X0124046Y0104785D01*
X0124046Y0103186D02*
X0129321Y0103186D01*
X0129321Y0101588D02*
X0124046Y0101588D01*
X0123988Y0099989D02*
X0129321Y0099989D01*
X0129321Y0098391D02*
X0123326Y0098391D01*
X0122246Y0096792D02*
X0129321Y0096792D01*
X0129321Y0095194D02*
X0122246Y0095194D01*
X0122246Y0093595D02*
X0129321Y0093595D01*
X0129321Y0091997D02*
X0123264Y0091997D01*
X0124863Y0090398D02*
X0129321Y0090398D01*
X0129321Y0088800D02*
X0125835Y0088800D01*
X0125996Y0087201D02*
X0129321Y0087201D01*
X0129321Y0085603D02*
X0125996Y0085603D01*
X0127080Y0084004D02*
X0128237Y0084004D01*
X0122033Y0087624D02*
X0122033Y0080124D01*
X0116243Y0077610D02*
X0112246Y0077610D01*
X0112246Y0076011D02*
X0117220Y0076011D01*
X0119328Y0074413D02*
X0112246Y0074413D01*
X0112246Y0079209D02*
X0115722Y0079209D01*
X0115722Y0080807D02*
X0112246Y0080807D01*
X0112246Y0082406D02*
X0116147Y0082406D01*
X0116987Y0084004D02*
X0112246Y0084004D01*
X0112246Y0085603D02*
X0118071Y0085603D01*
X0116853Y0087201D02*
X0112246Y0087201D01*
X0112246Y0088800D02*
X0115255Y0088800D01*
X0114399Y0090398D02*
X0112246Y0090398D01*
X0112246Y0091997D02*
X0114321Y0091997D01*
X0114321Y0093595D02*
X0112246Y0093595D01*
X0112246Y0095194D02*
X0114321Y0095194D01*
X0114321Y0096792D02*
X0112246Y0096792D01*
X0118283Y0091374D02*
X0122033Y0087624D01*
X0118283Y0091374D02*
X0118283Y0103874D01*
X0113333Y0109580D02*
X0113234Y0109580D01*
X0111728Y0111179D02*
X0114839Y0111179D01*
X0120580Y0115974D02*
X0106889Y0115974D01*
X0107246Y0117573D02*
X0119534Y0117573D01*
X0119321Y0119171D02*
X0107246Y0119171D01*
X0107246Y0120770D02*
X0119321Y0120770D01*
X0119321Y0122368D02*
X0107246Y0122368D01*
X0107246Y0123967D02*
X0119321Y0123967D01*
X0117008Y0125565D02*
X0107246Y0125565D01*
X0108283Y0127164D02*
X0108284Y0127164D01*
X0109872Y0127164D02*
X0114245Y0127164D01*
X0113087Y0128762D02*
X0111897Y0128762D01*
X0108284Y0128762D02*
X0108283Y0128762D01*
X0108284Y0130361D02*
X0108283Y0130361D01*
X0108284Y0131959D02*
X0108283Y0131959D01*
X0108284Y0133558D02*
X0108283Y0133558D01*
X0108284Y0135156D02*
X0108283Y0135156D01*
X0108284Y0136755D02*
X0108283Y0136755D01*
X0108284Y0138353D02*
X0108283Y0138353D01*
X0108284Y0139952D02*
X0108283Y0139952D01*
X0107246Y0141550D02*
X0115482Y0141550D01*
X0113612Y0139952D02*
X0110982Y0139952D01*
X0112264Y0138353D02*
X0112825Y0138353D01*
X0118283Y0133874D02*
X0123283Y0133874D01*
X0123283Y0118874D01*
X0133283Y0108874D01*
X0133283Y0080124D01*
X0139074Y0077610D02*
X0147493Y0077610D01*
X0146972Y0079209D02*
X0139595Y0079209D01*
X0139595Y0080807D02*
X0146972Y0080807D01*
X0147397Y0082406D02*
X0139170Y0082406D01*
X0138330Y0084004D02*
X0148237Y0084004D01*
X0149711Y0085603D02*
X0137246Y0085603D01*
X0137246Y0087201D02*
X0151007Y0087201D01*
X0152606Y0088800D02*
X0137246Y0088800D01*
X0137246Y0090398D02*
X0154204Y0090398D01*
X0154321Y0091997D02*
X0137246Y0091997D01*
X0137246Y0093595D02*
X0154321Y0093595D01*
X0154321Y0095194D02*
X0137246Y0095194D01*
X0137246Y0096792D02*
X0149616Y0096792D01*
X0148241Y0098391D02*
X0146623Y0098391D01*
X0147492Y0099989D02*
X0147579Y0099989D01*
X0143284Y0099989D02*
X0143283Y0099989D01*
X0143284Y0098391D02*
X0143283Y0098391D01*
X0143283Y0096874D02*
X0142937Y0096874D01*
X0142253Y0096982D01*
X0141594Y0097196D01*
X0140977Y0097511D01*
X0140417Y0097918D01*
X0139927Y0098408D01*
X0139520Y0098968D01*
X0139206Y0099585D01*
X0138992Y0100244D01*
X0138883Y0100928D01*
X0138883Y0103874D01*
X0138883Y0106820D01*
X0138992Y0107504D01*
X0139206Y0108163D01*
X0139520Y0108780D01*
X0139927Y0109340D01*
X0140417Y0109830D01*
X0140977Y0110237D01*
X0141594Y0110552D01*
X0142253Y0110766D01*
X0142937Y0110874D01*
X0143283Y0110874D01*
X0143283Y0103874D01*
X0138883Y0103874D01*
X0143283Y0103874D01*
X0143283Y0103874D01*
X0143284Y0103874D01*
X0143283Y0103874D01*
X0143283Y0096874D01*
X0139944Y0098391D02*
X0137246Y0098391D01*
X0137246Y0099989D02*
X0139075Y0099989D01*
X0138883Y0101588D02*
X0137246Y0101588D01*
X0137246Y0103186D02*
X0138883Y0103186D01*
X0138883Y0104785D02*
X0137246Y0104785D01*
X0137246Y0106383D02*
X0138883Y0106383D01*
X0139147Y0107982D02*
X0137246Y0107982D01*
X0137246Y0109580D02*
X0140167Y0109580D01*
X0136582Y0111179D02*
X0149839Y0111179D01*
X0150027Y0112777D02*
X0134984Y0112777D01*
X0133385Y0114376D02*
X0148428Y0114376D01*
X0146830Y0115974D02*
X0131787Y0115974D01*
X0130188Y0117573D02*
X0145231Y0117573D01*
X0143633Y0119171D02*
X0128590Y0119171D01*
X0127246Y0120770D02*
X0142034Y0120770D01*
X0141039Y0121765D02*
X0141039Y0121765D01*
X0140436Y0122368D02*
X0127246Y0122368D01*
X0127246Y0123967D02*
X0139474Y0123967D01*
X0139321Y0125565D02*
X0127246Y0125565D01*
X0127246Y0127164D02*
X0139245Y0127164D01*
X0138087Y0128762D02*
X0127246Y0128762D01*
X0127246Y0130361D02*
X0137521Y0130361D01*
X0137521Y0131959D02*
X0127246Y0131959D01*
X0127246Y0133558D02*
X0137521Y0133558D01*
X0137521Y0135156D02*
X0127246Y0135156D01*
X0127246Y0136755D02*
X0137521Y0136755D01*
X0137825Y0138353D02*
X0127246Y0138353D01*
X0127246Y0139952D02*
X0138612Y0139952D01*
X0134181Y0141550D02*
X0127246Y0141550D01*
X0127246Y0143149D02*
X0132787Y0143149D01*
X0132125Y0144747D02*
X0127246Y0144747D01*
X0127246Y0146346D02*
X0131972Y0146346D01*
X0132102Y0147945D02*
X0127246Y0147945D01*
X0127246Y0149543D02*
X0132764Y0149543D01*
X0134125Y0151142D02*
X0127246Y0151142D01*
X0127246Y0152740D02*
X0141314Y0152740D01*
X0142442Y0151142D02*
X0142913Y0151142D01*
X0145783Y0153874D02*
X0148283Y0153874D01*
X0163283Y0138874D01*
X0163283Y0133874D01*
X0168283Y0141374D02*
X0148283Y0161374D01*
X0148283Y0163874D01*
X0148283Y0177624D01*
X0138283Y0187624D01*
X0138283Y0196374D01*
X0134164Y0202294D02*
X0132403Y0202294D01*
X0128283Y0196374D02*
X0128283Y0191374D01*
X0138283Y0181374D01*
X0138283Y0163874D01*
X0138283Y0161374D01*
X0145783Y0153874D01*
X0139716Y0154339D02*
X0127246Y0154339D01*
X0127246Y0155937D02*
X0135327Y0155937D01*
X0133497Y0157536D02*
X0128070Y0157536D01*
X0128867Y0159134D02*
X0132700Y0159134D01*
X0132365Y0160733D02*
X0129202Y0160733D01*
X0129202Y0162331D02*
X0132365Y0162331D01*
X0132365Y0163930D02*
X0129202Y0163930D01*
X0129202Y0165528D02*
X0132365Y0165528D01*
X0132365Y0167127D02*
X0129202Y0167127D01*
X0128821Y0168725D02*
X0132746Y0168725D01*
X0133608Y0170324D02*
X0127959Y0170324D01*
X0125972Y0171922D02*
X0134321Y0171922D01*
X0134321Y0173521D02*
X0117246Y0173521D01*
X0117246Y0175119D02*
X0134321Y0175119D01*
X0134321Y0176718D02*
X0117246Y0176718D01*
X0117246Y0178316D02*
X0134321Y0178316D01*
X0134139Y0179915D02*
X0117246Y0179915D01*
X0117246Y0181513D02*
X0132541Y0181513D01*
X0130942Y0183112D02*
X0117246Y0183112D01*
X0117246Y0184710D02*
X0129344Y0184710D01*
X0127745Y0186309D02*
X0117246Y0186309D01*
X0117246Y0187907D02*
X0126147Y0187907D01*
X0124769Y0189506D02*
X0117246Y0189506D01*
X0118054Y0191104D02*
X0123513Y0191104D01*
X0121915Y0192703D02*
X0119652Y0192703D01*
X0120383Y0194301D02*
X0121184Y0194301D01*
X0121184Y0195900D02*
X0120383Y0195900D01*
X0120383Y0197498D02*
X0121184Y0197498D01*
X0121184Y0199097D02*
X0120383Y0199097D01*
X0119002Y0200695D02*
X0122565Y0200695D01*
X0124164Y0202294D02*
X0117403Y0202294D01*
X0113283Y0196374D02*
X0113283Y0163874D01*
X0113283Y0158874D01*
X0103283Y0148874D01*
X0103283Y0117624D01*
X0098283Y0112624D01*
X0098283Y0103874D01*
X0088283Y0103874D02*
X0088283Y0115124D01*
X0093283Y0120124D01*
X0093283Y0163874D01*
X0093283Y0196374D01*
X0089164Y0202294D02*
X0087403Y0202294D01*
X0083283Y0196374D02*
X0083283Y0163874D01*
X0083283Y0153874D01*
X0088283Y0148874D01*
X0088283Y0133874D01*
X0078283Y0133874D02*
X0078283Y0141374D01*
X0063283Y0156374D01*
X0063283Y0163874D01*
X0063283Y0196374D01*
X0059164Y0202294D02*
X0057403Y0202294D01*
X0053283Y0196374D02*
X0053283Y0163874D01*
X0053283Y0160124D01*
X0073283Y0140124D01*
X0073283Y0125124D01*
X0068283Y0120124D01*
X0068283Y0103874D01*
X0078283Y0103874D02*
X0078283Y0117624D01*
X0083283Y0122624D01*
X0083283Y0143874D01*
X0073283Y0153874D01*
X0073283Y0163874D01*
X0073283Y0196374D01*
X0069164Y0202294D02*
X0067403Y0202294D01*
X0077403Y0202294D02*
X0079164Y0202294D01*
X0097403Y0202294D02*
X0099164Y0202294D01*
X0103283Y0196374D02*
X0103283Y0163874D01*
X0103283Y0155124D01*
X0098283Y0150124D01*
X0098283Y0133874D01*
X0107246Y0143149D02*
X0119321Y0143149D01*
X0119321Y0144747D02*
X0107246Y0144747D01*
X0107246Y0146346D02*
X0119321Y0146346D01*
X0119321Y0147945D02*
X0107957Y0147945D01*
X0108283Y0148874D02*
X0108283Y0146374D01*
X0108283Y0148874D02*
X0118283Y0158874D01*
X0118283Y0170124D01*
X0117959Y0170324D02*
X0118608Y0170324D01*
X0117246Y0171922D02*
X0120595Y0171922D01*
X0123283Y0163874D02*
X0123283Y0133874D01*
X0119321Y0149543D02*
X0109556Y0149543D01*
X0111154Y0151142D02*
X0119321Y0151142D01*
X0119321Y0152740D02*
X0112753Y0152740D01*
X0114351Y0154339D02*
X0119321Y0154339D01*
X0119321Y0155937D02*
X0116240Y0155937D01*
X0118070Y0157536D02*
X0118497Y0157536D01*
X0138283Y0146374D02*
X0148283Y0146374D01*
X0153283Y0141374D01*
X0153283Y0133874D01*
X0143283Y0133874D02*
X0143283Y0125124D01*
X0158283Y0110124D01*
X0158283Y0088874D01*
X0153283Y0083874D01*
X0153283Y0080124D01*
X0150578Y0074413D02*
X0135989Y0074413D01*
X0138097Y0076011D02*
X0148470Y0076011D01*
X0130578Y0074413D02*
X0124739Y0074413D01*
X0126847Y0076011D02*
X0128470Y0076011D01*
X0122033Y0058874D02*
X0122033Y0055124D01*
X0122033Y0058874D02*
X0168283Y0058874D01*
X0173283Y0053874D01*
X0183283Y0053874D01*
X0188283Y0058874D01*
X0202033Y0058874D01*
X0213283Y0070124D01*
X0213283Y0103874D01*
X0208333Y0109580D02*
X0208234Y0109580D01*
X0206728Y0111179D02*
X0209839Y0111179D01*
X0201889Y0115974D02*
X0219321Y0115974D01*
X0219321Y0114376D02*
X0200639Y0114376D01*
X0202246Y0117573D02*
X0219321Y0117573D01*
X0219321Y0119171D02*
X0202246Y0119171D01*
X0202246Y0120770D02*
X0219321Y0120770D01*
X0219321Y0122368D02*
X0202246Y0122368D01*
X0203283Y0127164D02*
X0203284Y0127164D01*
X0203284Y0128762D02*
X0203283Y0128762D01*
X0203284Y0130361D02*
X0203283Y0130361D01*
X0203284Y0131959D02*
X0203283Y0131959D01*
X0203284Y0133558D02*
X0203283Y0133558D01*
X0203284Y0135156D02*
X0203283Y0135156D01*
X0203284Y0136755D02*
X0203283Y0136755D01*
X0203284Y0138353D02*
X0203283Y0138353D01*
X0203284Y0139952D02*
X0203283Y0139952D01*
X0202246Y0141550D02*
X0210482Y0141550D01*
X0208612Y0139952D02*
X0205982Y0139952D01*
X0202246Y0143149D02*
X0218405Y0143149D01*
X0219321Y0141550D02*
X0216085Y0141550D01*
X0217955Y0139952D02*
X0219321Y0139952D01*
X0219321Y0138353D02*
X0218742Y0138353D01*
X0216807Y0144747D02*
X0202260Y0144747D01*
X0203859Y0146346D02*
X0215208Y0146346D01*
X0214380Y0147945D02*
X0205457Y0147945D01*
X0207056Y0149543D02*
X0214321Y0149543D01*
X0214321Y0151142D02*
X0208654Y0151142D01*
X0210253Y0152740D02*
X0214321Y0152740D01*
X0214321Y0154339D02*
X0211729Y0154339D01*
X0212246Y0155937D02*
X0214321Y0155937D01*
X0213497Y0157536D02*
X0213070Y0157536D01*
X0213283Y0157624D02*
X0213283Y0173874D01*
X0211827Y0171922D02*
X0215595Y0171922D01*
X0213608Y0170324D02*
X0212959Y0170324D01*
X0208283Y0170124D02*
X0208283Y0163874D01*
X0208283Y0156374D01*
X0198283Y0146374D01*
X0198283Y0117624D01*
X0193283Y0112624D01*
X0193283Y0103874D01*
X0198234Y0109580D02*
X0198333Y0109580D01*
X0203283Y0103874D02*
X0203283Y0093874D01*
X0193283Y0083874D01*
X0183283Y0083874D01*
X0173283Y0073874D01*
X0173283Y0068874D02*
X0178283Y0068874D01*
X0173283Y0063874D02*
X0178283Y0058874D01*
X0173283Y0063874D02*
X0058283Y0063874D01*
X0053283Y0058874D01*
X0058283Y0053874D02*
X0048283Y0053874D01*
X0043283Y0058874D01*
X0043283Y0083874D01*
X0053283Y0093874D01*
X0053283Y0118874D01*
X0058283Y0123874D01*
X0058283Y0133874D01*
X0054245Y0127164D02*
X0052322Y0127164D01*
X0054321Y0125565D02*
X0049559Y0125565D01*
X0047008Y0125565D02*
X0030124Y0125565D01*
X0030208Y0125650D02*
X0029658Y0125099D01*
X0029027Y0124641D01*
X0028333Y0124287D01*
X0027592Y0124046D01*
X0026823Y0123924D01*
X0023369Y0123924D01*
X0023369Y0128788D01*
X0023198Y0128788D01*
X0023198Y0123924D01*
X0019744Y0123924D01*
X0018975Y0124046D01*
X0018234Y0124287D01*
X0017540Y0124641D01*
X0016909Y0125099D01*
X0016359Y0125650D01*
X0015901Y0126280D01*
X0015547Y0126974D01*
X0015306Y0127715D01*
X0015184Y0128484D01*
X0015184Y0128788D01*
X0023198Y0128788D01*
X0023198Y0128960D01*
X0023369Y0128960D01*
X0023369Y0133824D01*
X0026823Y0133824D01*
X0027592Y0133702D01*
X0028333Y0133461D01*
X0029027Y0133107D01*
X0029658Y0132649D01*
X0030208Y0132098D01*
X0030666Y0131468D01*
X0031020Y0130774D01*
X0031261Y0130033D01*
X0031383Y0129264D01*
X0031383Y0128960D01*
X0023369Y0128960D01*
X0023369Y0128788D01*
X0031383Y0128788D01*
X0031383Y0128484D01*
X0031261Y0127715D01*
X0031020Y0126974D01*
X0030666Y0126280D01*
X0030208Y0125650D01*
X0031082Y0127164D02*
X0044245Y0127164D01*
X0043087Y0128762D02*
X0031383Y0128762D01*
X0031154Y0130361D02*
X0042521Y0130361D01*
X0042521Y0131959D02*
X0030309Y0131959D01*
X0028035Y0133558D02*
X0042521Y0133558D01*
X0042521Y0135156D02*
X0009774Y0135156D01*
X0009774Y0133558D02*
X0018532Y0133558D01*
X0018234Y0133461D02*
X0018975Y0133702D01*
X0019744Y0133824D01*
X0023198Y0133824D01*
X0023198Y0128960D01*
X0015184Y0128960D01*
X0015184Y0129264D01*
X0015306Y0130033D01*
X0015547Y0130774D01*
X0015901Y0131468D01*
X0016359Y0132098D01*
X0016909Y0132649D01*
X0017540Y0133107D01*
X0018234Y0133461D01*
X0016257Y0131959D02*
X0009774Y0131959D01*
X0009774Y0130361D02*
X0015413Y0130361D01*
X0015184Y0128762D02*
X0009774Y0128762D01*
X0009774Y0127164D02*
X0015485Y0127164D01*
X0016443Y0125565D02*
X0009774Y0125565D01*
X0009774Y0123967D02*
X0019476Y0123967D01*
X0019744Y0123824D02*
X0023198Y0123824D01*
X0023198Y0118960D01*
X0015184Y0118960D01*
X0015184Y0119264D01*
X0015306Y0120033D01*
X0015547Y0120774D01*
X0015901Y0121468D01*
X0016359Y0122098D01*
X0016909Y0122649D01*
X0017540Y0123107D01*
X0018234Y0123461D01*
X0018975Y0123702D01*
X0019744Y0123824D01*
X0023198Y0123967D02*
X0023369Y0123967D01*
X0023369Y0125565D02*
X0023198Y0125565D01*
X0023198Y0127164D02*
X0023369Y0127164D01*
X0023369Y0128762D02*
X0023198Y0128762D01*
X0023198Y0130361D02*
X0023369Y0130361D01*
X0023369Y0131959D02*
X0023198Y0131959D01*
X0023198Y0133558D02*
X0023369Y0133558D01*
X0027090Y0123967D02*
X0052773Y0123967D01*
X0051174Y0122368D02*
X0029939Y0122368D01*
X0031021Y0120770D02*
X0049780Y0120770D01*
X0049321Y0119171D02*
X0031383Y0119171D01*
X0031215Y0117573D02*
X0049321Y0117573D01*
X0049321Y0115974D02*
X0030444Y0115974D01*
X0029644Y0114376D02*
X0049321Y0114376D01*
X0049321Y0112777D02*
X0031456Y0112777D01*
X0032310Y0111179D02*
X0049321Y0111179D01*
X0048283Y0110874D02*
X0048283Y0103874D01*
X0043883Y0103874D01*
X0043883Y0106820D01*
X0043992Y0107504D01*
X0044206Y0108163D01*
X0044520Y0108780D01*
X0044927Y0109340D01*
X0045417Y0109830D01*
X0045977Y0110237D01*
X0046594Y0110552D01*
X0047253Y0110766D01*
X0047937Y0110874D01*
X0048283Y0110874D01*
X0048284Y0109580D02*
X0048283Y0109580D01*
X0048284Y0107982D02*
X0048283Y0107982D01*
X0048284Y0106383D02*
X0048283Y0106383D01*
X0048284Y0104785D02*
X0048283Y0104785D01*
X0048283Y0103874D02*
X0048284Y0103874D01*
X0048283Y0103874D01*
X0048283Y0103874D01*
X0043883Y0103874D01*
X0043883Y0100928D01*
X0043992Y0100244D01*
X0044206Y0099585D01*
X0044520Y0098968D01*
X0044927Y0098408D01*
X0045417Y0097918D01*
X0045977Y0097511D01*
X0046594Y0097196D01*
X0047253Y0096982D01*
X0047937Y0096874D01*
X0048283Y0096874D01*
X0048283Y0103874D01*
X0048284Y0103186D02*
X0048283Y0103186D01*
X0048284Y0101588D02*
X0048283Y0101588D01*
X0048284Y0099989D02*
X0048283Y0099989D01*
X0048284Y0098391D02*
X0048283Y0098391D01*
X0049321Y0096792D02*
X0027246Y0096792D01*
X0027246Y0095194D02*
X0049000Y0095194D01*
X0047401Y0093595D02*
X0027246Y0093595D01*
X0027246Y0091997D02*
X0045803Y0091997D01*
X0044204Y0090398D02*
X0027246Y0090398D01*
X0027246Y0088800D02*
X0042606Y0088800D01*
X0041007Y0087201D02*
X0027246Y0087201D01*
X0027246Y0085603D02*
X0039711Y0085603D01*
X0039321Y0084004D02*
X0027246Y0084004D01*
X0027246Y0082406D02*
X0039321Y0082406D01*
X0039321Y0080807D02*
X0027246Y0080807D01*
X0027246Y0079209D02*
X0039321Y0079209D01*
X0039321Y0077610D02*
X0027246Y0077610D01*
X0027246Y0076011D02*
X0039321Y0076011D01*
X0039321Y0074413D02*
X0027246Y0074413D01*
X0027246Y0072814D02*
X0039321Y0072814D01*
X0039321Y0071216D02*
X0027246Y0071216D01*
X0027246Y0069617D02*
X0039321Y0069617D01*
X0039321Y0068019D02*
X0027246Y0068019D01*
X0027246Y0066420D02*
X0039321Y0066420D01*
X0039321Y0064822D02*
X0027939Y0064822D01*
X0029537Y0063223D02*
X0039321Y0063223D01*
X0039321Y0061625D02*
X0031136Y0061625D01*
X0032734Y0060026D02*
X0039321Y0060026D01*
X0039321Y0058428D02*
X0034333Y0058428D01*
X0035932Y0056829D02*
X0039842Y0056829D01*
X0041323Y0055231D02*
X0037530Y0055231D01*
X0039129Y0053632D02*
X0042922Y0053632D01*
X0044520Y0052034D02*
X0040727Y0052034D01*
X0042326Y0050435D02*
X0046232Y0050435D01*
X0047321Y0048837D02*
X0043924Y0048837D01*
X0045523Y0047238D02*
X0047321Y0047238D01*
X0047121Y0045640D02*
X0048086Y0045640D01*
X0048720Y0044041D02*
X0049684Y0044041D01*
X0048283Y0038874D02*
X0053283Y0038874D01*
X0063283Y0038874D01*
X0133283Y0038874D01*
X0133283Y0035124D01*
X0133283Y0038874D02*
X0153283Y0038874D01*
X0153283Y0033333D01*
X0153283Y0038874D02*
X0178283Y0038874D01*
X0188283Y0038874D01*
X0184275Y0034450D02*
X0182291Y0034450D01*
X0180811Y0032852D02*
X0185756Y0032852D01*
X0184157Y0031253D02*
X0182410Y0031253D01*
X0182883Y0029655D02*
X0183683Y0029655D01*
X0183683Y0028774D02*
X0188183Y0028774D01*
X0188183Y0024274D01*
X0186378Y0024274D01*
X0183683Y0026969D01*
X0183683Y0028774D01*
X0183683Y0028056D02*
X0182883Y0028056D01*
X0182372Y0026458D02*
X0184194Y0026458D01*
X0185793Y0024859D02*
X0180774Y0024859D01*
X0178383Y0024859D02*
X0178183Y0024859D01*
X0178183Y0024274D02*
X0176378Y0024274D01*
X0173683Y0026969D01*
X0173683Y0028774D01*
X0178183Y0028774D01*
X0178183Y0024274D01*
X0178183Y0026458D02*
X0178383Y0026458D01*
X0178383Y0028056D02*
X0178183Y0028056D01*
X0175793Y0024859D02*
X0157807Y0024859D01*
X0153369Y0024859D02*
X0153198Y0024859D01*
X0153198Y0025487D02*
X0153198Y0022001D01*
X0148334Y0022001D01*
X0148334Y0023924D01*
X0148457Y0024382D01*
X0148694Y0024792D01*
X0149029Y0025127D01*
X0149439Y0025364D01*
X0149897Y0025487D01*
X0153198Y0025487D01*
X0153198Y0023261D02*
X0153369Y0023261D01*
X0153369Y0021662D02*
X0153198Y0021662D01*
X0153198Y0020064D02*
X0153369Y0020064D01*
X0153369Y0018465D02*
X0153198Y0018465D01*
X0149444Y0018465D02*
X0115137Y0018465D01*
X0113946Y0017274D02*
X0112621Y0017274D01*
X0111683Y0018211D01*
X0111683Y0019537D01*
X0114421Y0022274D01*
X0102621Y0022274D01*
X0101683Y0023211D01*
X0101683Y0024537D01*
X0102621Y0025474D01*
X0114421Y0025474D01*
X0111683Y0028211D01*
X0111683Y0029537D01*
X0112621Y0030474D01*
X0113946Y0030474D01*
X0118946Y0025474D01*
X0119883Y0024537D01*
X0119883Y0023211D01*
X0113946Y0017274D01*
X0111683Y0018465D02*
X0038746Y0018465D01*
X0039239Y0020064D02*
X0112210Y0020064D01*
X0113809Y0021662D02*
X0039266Y0021662D01*
X0039266Y0023261D02*
X0101683Y0023261D01*
X0102006Y0024859D02*
X0065774Y0024859D01*
X0067372Y0026458D02*
X0113437Y0026458D01*
X0111839Y0028056D02*
X0067883Y0028056D01*
X0067883Y0029655D02*
X0111801Y0029655D01*
X0114766Y0029655D02*
X0129994Y0029655D01*
X0128228Y0031253D02*
X0067410Y0031253D01*
X0065811Y0032852D02*
X0127393Y0032852D01*
X0126972Y0034450D02*
X0067291Y0034450D01*
X0060756Y0032852D02*
X0055811Y0032852D01*
X0057291Y0034450D02*
X0059275Y0034450D01*
X0059157Y0031253D02*
X0057410Y0031253D01*
X0057883Y0029655D02*
X0058683Y0029655D01*
X0058683Y0028774D02*
X0063183Y0028774D01*
X0063183Y0024274D01*
X0061378Y0024274D01*
X0058683Y0026969D01*
X0058683Y0028774D01*
X0058683Y0028056D02*
X0057883Y0028056D01*
X0057372Y0026458D02*
X0059194Y0026458D01*
X0060793Y0024859D02*
X0055774Y0024859D01*
X0053383Y0024859D02*
X0053183Y0024859D01*
X0053183Y0024274D02*
X0051378Y0024274D01*
X0048683Y0026969D01*
X0048683Y0028774D01*
X0053183Y0028774D01*
X0053183Y0024274D01*
X0053183Y0026458D02*
X0053383Y0026458D01*
X0053383Y0028056D02*
X0053183Y0028056D01*
X0049194Y0026458D02*
X0038865Y0026458D01*
X0039266Y0024859D02*
X0050793Y0024859D01*
X0048683Y0028056D02*
X0038372Y0028056D01*
X0037879Y0029655D02*
X0048683Y0029655D01*
X0049157Y0031253D02*
X0036896Y0031253D01*
X0037790Y0029943D02*
X0037790Y0029943D01*
X0035807Y0032852D02*
X0050756Y0032852D01*
X0049275Y0034450D02*
X0034505Y0034450D01*
X0034969Y0034080D02*
X0034969Y0034080D01*
X0032501Y0036049D02*
X0045505Y0036049D01*
X0043907Y0037647D02*
X0029921Y0037647D01*
X0031054Y0037203D02*
X0031054Y0037203D01*
X0026392Y0039032D02*
X0026392Y0039032D01*
X0023544Y0039246D02*
X0042308Y0039246D01*
X0040710Y0040844D02*
X0009774Y0040844D01*
X0009774Y0039246D02*
X0020693Y0039246D01*
X0021398Y0039407D02*
X0021398Y0039407D01*
X0016516Y0038292D02*
X0016516Y0038292D01*
X0015399Y0037647D02*
X0009774Y0037647D01*
X0009774Y0036049D02*
X0012630Y0036049D01*
X0012179Y0035788D02*
X0012179Y0035788D01*
X0010937Y0034450D02*
X0009774Y0034450D01*
X0009774Y0042443D02*
X0039111Y0042443D01*
X0037513Y0044041D02*
X0009774Y0044041D01*
X0009774Y0045640D02*
X0035914Y0045640D01*
X0034316Y0047238D02*
X0009774Y0047238D01*
X0009774Y0048837D02*
X0032717Y0048837D01*
X0031119Y0050435D02*
X0009774Y0050435D01*
X0009774Y0052034D02*
X0029520Y0052034D01*
X0027922Y0053632D02*
X0009774Y0053632D01*
X0009774Y0055231D02*
X0026323Y0055231D01*
X0024725Y0056829D02*
X0009774Y0056829D01*
X0009774Y0058428D02*
X0023126Y0058428D01*
X0021528Y0060026D02*
X0009774Y0060026D01*
X0009774Y0061625D02*
X0019929Y0061625D01*
X0019321Y0063223D02*
X0009774Y0063223D01*
X0009774Y0064822D02*
X0019321Y0064822D01*
X0019321Y0066420D02*
X0009774Y0066420D01*
X0009774Y0068019D02*
X0019321Y0068019D01*
X0019321Y0069617D02*
X0009774Y0069617D01*
X0009774Y0071216D02*
X0019321Y0071216D01*
X0019321Y0072814D02*
X0009774Y0072814D01*
X0009774Y0074413D02*
X0019321Y0074413D01*
X0019321Y0076011D02*
X0009774Y0076011D01*
X0009774Y0077610D02*
X0019321Y0077610D01*
X0019321Y0079209D02*
X0009774Y0079209D01*
X0009774Y0080807D02*
X0019321Y0080807D01*
X0019321Y0082406D02*
X0009774Y0082406D01*
X0009774Y0084004D02*
X0019321Y0084004D01*
X0019321Y0085603D02*
X0009774Y0085603D01*
X0009774Y0087201D02*
X0019321Y0087201D01*
X0019321Y0088800D02*
X0009774Y0088800D01*
X0009774Y0090398D02*
X0019321Y0090398D01*
X0019321Y0091997D02*
X0009774Y0091997D01*
X0009774Y0093595D02*
X0019321Y0093595D01*
X0019321Y0095194D02*
X0009774Y0095194D01*
X0009774Y0096792D02*
X0019321Y0096792D01*
X0019321Y0098391D02*
X0009774Y0098391D01*
X0009774Y0099989D02*
X0019321Y0099989D01*
X0019321Y0101588D02*
X0009774Y0101588D01*
X0009774Y0103186D02*
X0017372Y0103186D01*
X0015297Y0104785D02*
X0009774Y0104785D01*
X0009774Y0106383D02*
X0014334Y0106383D01*
X0013822Y0107982D02*
X0009774Y0107982D01*
X0009774Y0109580D02*
X0013822Y0109580D01*
X0014257Y0111179D02*
X0009774Y0111179D01*
X0009774Y0112777D02*
X0015111Y0112777D01*
X0016923Y0114376D02*
X0009774Y0114376D01*
X0009774Y0115974D02*
X0016123Y0115974D01*
X0015352Y0117573D02*
X0009774Y0117573D01*
X0009774Y0119171D02*
X0015184Y0119171D01*
X0015546Y0120770D02*
X0009774Y0120770D01*
X0009774Y0122368D02*
X0016628Y0122368D01*
X0023198Y0122368D02*
X0023369Y0122368D01*
X0023369Y0120770D02*
X0023198Y0120770D01*
X0023198Y0119171D02*
X0023369Y0119171D01*
X0023283Y0108874D02*
X0023283Y0063874D01*
X0048283Y0038874D01*
X0058283Y0043874D02*
X0053283Y0048874D01*
X0058283Y0043874D02*
X0128283Y0043874D01*
X0138283Y0053874D01*
X0167033Y0053874D01*
X0172033Y0048874D01*
X0178283Y0048874D01*
X0183283Y0043874D02*
X0154533Y0043874D01*
X0153283Y0045124D01*
X0146972Y0034450D02*
X0139595Y0034450D01*
X0139174Y0032852D02*
X0146972Y0032852D01*
X0146972Y0031253D02*
X0138339Y0031253D01*
X0136573Y0029655D02*
X0147568Y0029655D01*
X0148760Y0024859D02*
X0119561Y0024859D01*
X0119883Y0023261D02*
X0148334Y0023261D01*
X0148334Y0021662D02*
X0118334Y0021662D01*
X0116736Y0020064D02*
X0148334Y0020064D01*
X0158999Y0029655D02*
X0173683Y0029655D01*
X0173683Y0028056D02*
X0116364Y0028056D01*
X0117963Y0026458D02*
X0174194Y0026458D01*
X0174157Y0031253D02*
X0159595Y0031253D01*
X0159595Y0032852D02*
X0175756Y0032852D01*
X0174275Y0034450D02*
X0159595Y0034450D01*
X0183283Y0043874D02*
X0188283Y0048874D01*
X0191883Y0044041D02*
X0197847Y0044041D01*
X0188383Y0028056D02*
X0188183Y0028056D01*
X0188183Y0026458D02*
X0188383Y0026458D01*
X0188383Y0024859D02*
X0188183Y0024859D01*
X0122033Y0058874D02*
X0063283Y0058874D01*
X0058283Y0053874D02*
X0063283Y0048874D01*
X0063383Y0028056D02*
X0063183Y0028056D01*
X0063183Y0026458D02*
X0063383Y0026458D01*
X0063383Y0024859D02*
X0063183Y0024859D01*
X0072033Y0068874D02*
X0108283Y0068874D01*
X0072033Y0068874D02*
X0065783Y0075124D01*
X0059533Y0075124D01*
X0053283Y0068874D01*
X0044944Y0098391D02*
X0027246Y0098391D01*
X0027246Y0099989D02*
X0044075Y0099989D01*
X0043883Y0101588D02*
X0027246Y0101588D01*
X0029195Y0103186D02*
X0043883Y0103186D01*
X0043883Y0104785D02*
X0031270Y0104785D01*
X0032233Y0106383D02*
X0043883Y0106383D01*
X0044147Y0107982D02*
X0032745Y0107982D01*
X0032745Y0109580D02*
X0045167Y0109580D01*
X0048283Y0133874D02*
X0048283Y0146374D01*
X0041972Y0146346D02*
X0009774Y0146346D01*
X0009774Y0147945D02*
X0042102Y0147945D01*
X0042764Y0149543D02*
X0009774Y0149543D01*
X0009774Y0151142D02*
X0044125Y0151142D01*
X0043814Y0152740D02*
X0009774Y0152740D01*
X0009774Y0154339D02*
X0042216Y0154339D01*
X0040327Y0155937D02*
X0009774Y0155937D01*
X0009774Y0157536D02*
X0038497Y0157536D01*
X0037700Y0159134D02*
X0009774Y0159134D01*
X0009774Y0160733D02*
X0037365Y0160733D01*
X0037365Y0162331D02*
X0009774Y0162331D01*
X0009774Y0163930D02*
X0037365Y0163930D01*
X0037365Y0165528D02*
X0009774Y0165528D01*
X0009774Y0167127D02*
X0037365Y0167127D01*
X0037746Y0168725D02*
X0009774Y0168725D01*
X0009774Y0170324D02*
X0038608Y0170324D01*
X0039321Y0171922D02*
X0009774Y0171922D01*
X0009774Y0173521D02*
X0039321Y0173521D01*
X0039321Y0175119D02*
X0009774Y0175119D01*
X0009774Y0176718D02*
X0015803Y0176718D01*
X0013034Y0178316D02*
X0009774Y0178316D01*
X0009774Y0179915D02*
X0011154Y0179915D01*
X0021398Y0175192D02*
X0021398Y0175192D01*
X0029326Y0176718D02*
X0039321Y0176718D01*
X0039321Y0178316D02*
X0032208Y0178316D01*
X0034212Y0179915D02*
X0039321Y0179915D01*
X0039321Y0181513D02*
X0035647Y0181513D01*
X0036737Y0183112D02*
X0039321Y0183112D01*
X0039321Y0184710D02*
X0037807Y0184710D01*
X0038300Y0186309D02*
X0039321Y0186309D01*
X0039321Y0187907D02*
X0038793Y0187907D01*
X0039266Y0189506D02*
X0039321Y0189506D01*
X0043283Y0196374D02*
X0043283Y0163874D01*
X0043283Y0158874D01*
X0048283Y0153874D01*
X0053283Y0153874D01*
X0068283Y0138874D01*
X0068283Y0133874D01*
X0044181Y0141550D02*
X0009774Y0141550D01*
X0009774Y0139952D02*
X0043612Y0139952D01*
X0042825Y0138353D02*
X0009774Y0138353D01*
X0009774Y0136755D02*
X0042521Y0136755D01*
X0042787Y0143149D02*
X0009774Y0143149D01*
X0009774Y0144747D02*
X0042125Y0144747D01*
X0037033Y0176374D02*
X0037033Y0178874D01*
X0037033Y0201374D01*
X0037033Y0203874D01*
X0035783Y0203874D02*
X0035783Y0201374D01*
X0035783Y0178874D01*
X0035783Y0176374D01*
X0036794Y0200695D02*
X0037565Y0200695D01*
X0039164Y0202294D02*
X0035704Y0202294D01*
X0034316Y0203892D02*
X0207928Y0203892D01*
X0205783Y0203874D02*
X0205783Y0181374D01*
X0206521Y0181513D02*
X0202498Y0181513D01*
X0202246Y0183112D02*
X0205319Y0183112D01*
X0205623Y0182481D02*
X0205623Y0182481D01*
X0204533Y0181374D02*
X0204533Y0203874D01*
X0206445Y0202294D02*
X0202403Y0202294D01*
X0204002Y0200695D02*
X0205280Y0200695D01*
X0205623Y0201409D02*
X0205623Y0201409D01*
X0198283Y0196374D02*
X0198283Y0180124D01*
X0208283Y0170124D01*
X0207293Y0176718D02*
X0212653Y0176718D01*
X0209885Y0178316D02*
X0205695Y0178316D01*
X0204096Y0179915D02*
X0208004Y0179915D01*
X0209029Y0178810D02*
X0209029Y0178810D01*
X0204550Y0184710D02*
X0202246Y0184710D01*
X0202246Y0186309D02*
X0203780Y0186309D01*
X0203450Y0186993D02*
X0203450Y0186993D01*
X0203313Y0187907D02*
X0202246Y0187907D01*
X0202246Y0189506D02*
X0203072Y0189506D01*
X0194164Y0202294D02*
X0192403Y0202294D01*
X0188283Y0196374D02*
X0188283Y0183874D01*
X0198283Y0173874D01*
X0198283Y0163874D01*
X0198283Y0153874D01*
X0193283Y0148874D01*
X0193283Y0133874D01*
X0183283Y0133874D02*
X0183283Y0148874D01*
X0178283Y0153874D01*
X0178283Y0163874D01*
X0178283Y0181374D01*
X0168283Y0191374D01*
X0168283Y0196374D01*
X0164164Y0202294D02*
X0162403Y0202294D01*
X0158283Y0196374D02*
X0158283Y0180124D01*
X0168283Y0170124D01*
X0168283Y0163874D01*
X0168283Y0156374D01*
X0178283Y0146374D01*
X0178283Y0122624D01*
X0173283Y0117624D01*
X0173283Y0103874D01*
X0169616Y0096792D02*
X0166951Y0096792D01*
X0163283Y0103874D02*
X0163283Y0120124D01*
X0168283Y0125124D01*
X0168283Y0141374D01*
X0173283Y0143874D02*
X0173283Y0133874D01*
X0173283Y0143874D02*
X0158283Y0158874D01*
X0158283Y0163874D01*
X0158283Y0173874D01*
X0148283Y0183874D01*
X0148283Y0196374D01*
X0144164Y0202294D02*
X0142403Y0202294D01*
X0152403Y0202294D02*
X0154164Y0202294D01*
X0172403Y0202294D02*
X0174164Y0202294D01*
X0178283Y0196374D02*
X0178283Y0187624D01*
X0188283Y0177624D01*
X0188283Y0163874D01*
X0188283Y0120124D01*
X0183283Y0115124D01*
X0183283Y0103874D01*
X0179616Y0096792D02*
X0176951Y0096792D01*
X0186951Y0096792D02*
X0189616Y0096792D01*
X0148333Y0109580D02*
X0146400Y0109580D01*
X0147420Y0107982D02*
X0147671Y0107982D01*
X0143284Y0107982D02*
X0143283Y0107982D01*
X0143284Y0109580D02*
X0143283Y0109580D01*
X0143284Y0106383D02*
X0143283Y0106383D01*
X0143284Y0104785D02*
X0143283Y0104785D01*
X0143284Y0103186D02*
X0143283Y0103186D01*
X0143284Y0101588D02*
X0143283Y0101588D01*
X0122178Y0114376D02*
X0105639Y0114376D01*
X0107403Y0202294D02*
X0109164Y0202294D01*
X0049164Y0202294D02*
X0047403Y0202294D01*
X0182403Y0202294D02*
X0184164Y0202294D01*
D17*
X0138283Y0146374D03*
X0133283Y0080124D03*
X0122033Y0080124D03*
X0122033Y0055124D03*
X0133283Y0035124D03*
X0153283Y0045124D03*
X0153283Y0080124D03*
X0048283Y0146374D03*
M02*
