%
M48
M72
T01C0.0236
T02C0.0315
T03C0.0354
T04C0.1299
%
T01
X8578Y5012
X9328Y5512
X9328Y7512
X8578Y8012
X15328Y7637
X15328Y5512
T02
X14828Y9887
X13828Y9887
X12828Y9887
X11328Y9887
X10328Y9887
X9328Y9887
X8328Y9887
X7328Y9887
X6328Y9887
X5328Y9887
X4328Y9887
X4328Y12887
X5328Y12887
X6328Y12887
X7328Y12887
X8328Y12887
X9328Y12887
X10328Y12887
X11328Y12887
X12828Y12887
X13828Y12887
X14828Y12887
X15828Y12887
X16828Y12887
X17828Y12887
X18828Y12887
X19828Y12887
X19828Y9887
X18828Y9887
X17828Y9887
X16828Y9887
X15828Y9887
T03
X17828Y6887
X17828Y5887
X18828Y5887
X18828Y6887
X18828Y4887
X17828Y4887
X17828Y3887
X18828Y3887
X18828Y2887
X17828Y2887
X6328Y2887
X5328Y2887
X5328Y3887
X6328Y3887
X6328Y4887
X5328Y4887
X5328Y5887
X6328Y5887
X6328Y6887
X5328Y6887
X2328Y9387
X2328Y10387
X2328Y11387
X4328Y15387
X5328Y15387
X6328Y15387
X7328Y15387
X8328Y15387
X9328Y15387
X10328Y15387
X11328Y15387
X12828Y15387
X13828Y15387
X14828Y15387
X15828Y15387
X16828Y15387
X17828Y15387
X18828Y15387
X19828Y15387
T04
X2265Y2265
X2265Y15257
X21950Y15257
X21950Y2265
M30
