%
M48
M72
T01C0.0236
T02C0.0315
T03C0.0320
T04C0.0354
T05C0.0360
T06C0.1299
%
T01
X15328Y4512
X15328Y8012
X13328Y8012
X13328Y3512
X12203Y8012
X12203Y5512
X13828Y14637
X4828Y14637
T02
X21828Y16387
X20828Y16387
X19828Y16387
X18828Y16387
X17828Y16387
X16828Y16387
X15828Y16387
X14828Y16387
X13828Y16387
X12328Y16387
X11328Y16387
X10328Y16387
X9328Y16387
X8328Y16387
X7328Y16387
X6328Y16387
X5328Y16387
X4328Y16387
T03
X21328Y10387
X20328Y10387
X17328Y10387
X16328Y10387
X19328Y10387
X18328Y10387
X15328Y10387
X14328Y10387
X14328Y13387
X15328Y13387
X16328Y13387
X17328Y13387
X18328Y13387
X19328Y13387
X20328Y13387
X21328Y13387
X11828Y10387
X10828Y10387
X7828Y10387
X6828Y10387
X9828Y10387
X8828Y10387
X5828Y10387
X4828Y10387
X4828Y13387
X5828Y13387
X6828Y13387
X7828Y13387
X8828Y13387
X9828Y13387
X10828Y13387
X11828Y13387
T04
X2328Y12887
X2328Y11887
X2328Y10887
X19828Y19637
X18828Y19637
X17828Y19637
X14828Y19637
X13828Y19637
X12828Y19637
X16828Y19637
X15828Y19637
X11328Y19637
X10328Y19637
X9328Y19637
X6328Y19637
X5328Y19637
X4328Y19637
X8328Y19637
X7328Y19637
T05
X17828Y2887
X18828Y2887
X17828Y3887
X18828Y3887
X17828Y4887
X18828Y4887
X17828Y5887
X18828Y5887
X17828Y6887
X18828Y6887
X5328Y2887
X6328Y2887
X5328Y3887
X6328Y3887
X5328Y4887
X6328Y4887
X5328Y5887
X6328Y5887
X5328Y6887
X6328Y6887
T06
X2265Y19194
X21950Y19194
X21950Y2265
X2265Y2265
M30
